<svg xmlns="http://www.w3.org/2000/svg" aria-hidden="true" style="position:absolute;width:0;height:0;overflow:hidden"><defs>
<symbol id="coin" viewBox="0 0 32 32"><path fill="#fd9222" d="M16 2.667c-7.333 0-13.333 6-13.333 13.333s6 13.333 13.333 13.333 13.333-6 13.333-13.333S23.333 2.667 16 2.667zm0 24c-5.867 0-10.667-4.8-10.667-10.667S10.133 5.333 16 5.333 26.667 10.133 26.667 16 21.867 26.667 16 26.667z" style="fill:var(--color1, #fd9222)"/><path fill="#fd9222" d="M17.733 14.667h-3.467c-.667 0-1.2-.533-1.2-1.2s.533-1.2 1.2-1.2h4.933c.8 0 1.333-.533 1.333-1.333s-.533-1.333-1.333-1.333h-1.867v-1.2c0-.8-.533-1.333-1.333-1.333s-1.333.533-1.333 1.333v1.2h-.4c-2.133 0-3.867 1.733-3.867 3.867s1.733 3.867 3.867 3.867h3.333c.667 0 1.2.533 1.2 1.2s-.533 1.2-1.2 1.2h-4.933c-.8 0-1.333.533-1.333 1.333s.533 1.333 1.333 1.333h2v1.2c0 .8.533 1.333 1.333 1.333s1.333-.533 1.333-1.333v-1.2h.4c2.133 0 3.867-1.733 3.867-3.867s-1.733-3.867-3.867-3.867z" style="fill:var(--color1, #fd9222)"/></symbol>
<symbol id="tick" viewBox="0 0 32 32"><path fill="#fd9222" d="M16.947 17.867a1.334 1.334 0 0 1-1.894 0l-6.107-6.12a1.334 1.334 0 1 0-1.894 1.88l6.12 6.12a4.001 4.001 0 0 0 5.654 0l6.12-6.12a1.337 1.337 0 0 0-.434-2.172 1.331 1.331 0 0 0-1.46.292l-6.107 6.12z" style="fill:var(--color1, #fd9222)"/></symbol>
<symbol id="instagram" viewBox="0 0 32 32"><path d="M8.507 1.391a7.864 7.864 0 0 0-4.863 2.347l-.002.002a7.754 7.754 0 0 0-2.254 4.812l-.002.03c-.065.672-.065 14.165 0 14.837a7.807 7.807 0 0 0 2.353 4.938l.002.002a7.754 7.754 0 0 0 4.812 2.254l.03.002c.672.065 14.165.065 14.837 0a7.77 7.77 0 0 0 4.841-2.256 7.793 7.793 0 0 0 2.352-4.91l.002-.03c.065-.672.065-14.165 0-14.837a7.811 7.811 0 0 0-2.352-4.938l-.002-.002a7.754 7.754 0 0 0-4.812-2.254l-.03-.002c-.619-.06-14.299-.056-14.912.005zm15.19 2.72a5.33 5.33 0 0 1 4.188 4.159l.006.034c.107.529.109.68.109 7.696 0 7.021-.003 7.167-.111 7.697a5.33 5.33 0 0 1-4.159 4.188l-.034.006c-.529.107-.68.109-7.696.109s-7.167-.003-7.696-.109a5.33 5.33 0 0 1-4.188-4.159l-.006-.034c-.108-.531-.111-.676-.111-7.697s.003-7.167.111-7.697a5.341 5.341 0 0 1 4.125-4.183l.035-.006c.485-.103.743-.105 7.695-.109 7.064-.004 7.201-.003 7.732.107zm-.686 3.248c.497-.073.989.025 1.26.252.293.248.393.516.391 1.056-.003.533-.077.763-.324.997-.244.233-.527.324-1.005.323-.919-.004-1.323-.408-1.319-1.32.004-.805.309-1.205.997-1.308zm-8.184 2.029c-2.787.535-4.903 2.719-5.367 5.537-.1.608-.075 1.739.053 2.328a6.557 6.557 0 0 0 1.74 3.301l-.001-.001c1.205 1.261 2.744 1.959 4.508 2.044 3.371.161 6.323-2.233 6.883-5.584.109-.653.083-1.816-.057-2.453-.197-.905-.64-1.899-1.149-2.573a8.69 8.69 0 0 0-1.405-1.412l-.018-.013c-.449-.341-1.511-.868-2.04-1.013-1.024-.281-2.205-.341-3.147-.16zm1.962 2.64c1.052.2 2.011.839 2.62 1.747.431.643.679 1.596.627 2.412-.064.997-.447 1.827-1.183 2.567-.413.416-.556.521-.988.729-.712.344-1.075.429-1.812.427-1.155-.003-1.988-.349-2.801-1.161-.811-.811-1.156-1.641-1.164-2.801-.004-.732.115-1.223.459-1.891.311-.601 1.017-1.307 1.613-1.612.921-.471 1.696-.593 2.629-.416z"/></symbol>
<symbol id="chocolate-bar" viewBox="0 0 32 32"><path d="m13.822 2.413 7.527 7.536.08-.08a.856.856 0 0 1 1.184-.013l.873.873c.305.305.315.77.083 1.094l-.004.007-.143.192 6.16 6.16c.55.55.55 1.43 0 1.98l-9.43 9.43c-.55.55-1.43.55-1.98 0l-4.447-4.447a.853.853 0 0 1-.612.317.842.842 0 0 1-.644-.246l-2.6-2.6a.856.856 0 0 1-.013-1.184l.006-.007.077-.076-7.527-7.527c-.55-.55-.55-1.43 0-1.98l9.43-9.43c.55-.55 1.43-.55 1.98 0v.001zm6.582 8.48-1.756-1.755a.59.59 0 0 0-.85 0l-3.58 3.58a.621.621 0 0 0-.179.43.602.602 0 0 0 .179.43l1.749 1.749.61-.61-1.565-1.565 3.21-3.22 1.569 1.574.613-.613zm-5.076 5.072-1.754-1.754a.59.59 0 0 0-.85 0l-3.59 3.59c-.24.23-.24.61 0 .85l1.752 1.752.616-.616-1.57-1.564 3.22-3.21 1.564 1.563.612-.611zM8.822 8.193l3.58 3.58c.24.24.62.24.85-.01l3.58-3.58a.57.57 0 0 0 .18-.42h.01c0-.15-.06-.31-.18-.43l-3.58-3.58a.602.602 0 0 0-.86 0l-3.58 3.59c-.24.23-.24.61 0 .85zm-5.07 5.07 3.58 3.58c.24.24.62.24.85 0l3.58-3.58a.578.578 0 0 0 .18-.43h.01c0-.16-.06-.31-.18-.43l-3.58-3.58a.59.59 0 0 0-.85 0l-3.59 3.59c-.24.23-.24.61 0 .85zm6.933 8.754 2.362 2.363 9.636-13.04-.655-.655-11.343 11.332z" style="fill:var(--color2, #000)"/><path fill="#fd9222" d="m13.822 2.413 7.527 7.536.08-.08a.856.856 0 0 1 1.184-.013l.873.873c.305.305.315.77.083 1.094l-.004.007-.143.192 6.16 6.16c.55.55.55 1.43 0 1.98l-9.43 9.43c-.55.55-1.43.55-1.98 0l-4.447-4.447a.853.853 0 0 1-.612.317.842.842 0 0 1-.644-.246l-2.6-2.6a.856.856 0 0 1-.013-1.184l.006-.007.077-.076-7.527-7.527c-.55-.55-.55-1.43 0-1.98l9.43-9.43c.55-.55 1.43-.55 1.98 0v.001zm6.582 8.48-1.756-1.755a.59.59 0 0 0-.85 0l-3.58 3.58a.621.621 0 0 0-.179.43.602.602 0 0 0 .179.43l1.749 1.749.61-.61-1.565-1.565 3.21-3.22 1.569 1.574.613-.613zm-5.076 5.072-1.754-1.754a.59.59 0 0 0-.85 0l-3.59 3.59c-.24.23-.24.61 0 .85l1.752 1.752.616-.616-1.57-1.564 3.22-3.21 1.564 1.563.612-.611zM8.822 8.193l3.58 3.58c.24.24.62.24.85-.01l3.58-3.58a.57.57 0 0 0 .18-.42h.01c0-.15-.06-.31-.18-.43l-3.58-3.58a.602.602 0 0 0-.86 0l-3.58 3.59c-.24.23-.24.61 0 .85zm-5.07 5.07 3.58 3.58c.24.24.62.24.85 0l3.58-3.58a.578.578 0 0 0 .18-.43h.01c0-.16-.06-.31-.18-.43l-3.58-3.58a.59.59 0 0 0-.85 0l-3.59 3.59c-.24.23-.24.61 0 .85zm6.933 8.754 2.362 2.363 9.636-13.04-.655-.655-11.343 11.332z" style="fill:var(--color1, #fd9222)"/></symbol>
<symbol id="menu" viewBox="0 0 32 32"><path d="m3.32 6.91.274-.137h24.812l.274.137c.382.191.547.518.547 1.09s-.165.899-.547 1.09l-.274.137H3.594L3.32 9.09c-.382-.191-.547-.518-.547-1.09s.165-.899.547-1.09zm0 8 .274-.137h24.812l.274.137c.382.191.547.518.547 1.09s-.165.899-.547 1.09l-.274.137H3.594l-.274-.137c-.382-.191-.547-.518-.547-1.09s.165-.899.547-1.09zm0 8 .274-.137h24.812l.274.137c.382.191.547.518.547 1.09s-.165.899-.547 1.09l-.274.137H3.594l-.274-.137c-.382-.191-.547-.518-.547-1.09s.165-.899.547-1.09z"/></symbol>
<symbol id="twitter" viewBox="0 0 32 32"><path d="M21.12 2.699c-1.139.208-1.597.345-2.32.691-.881.423-1.711 1.045-2.281 1.713C15.403 6.41 14.8 7.852 14.69 9.478l-.037.545-.247-.029c-2.089-.245-3.967-.879-5.401-1.824-1.385-.913-3.087-2.579-4.421-4.329-.42-.552-.46-.592-.753-.748-.281-.149-.595-.135-.979.048-.427.201-.661.481-.839 1.005-.289.845-.584 2.247-.768 3.643-.131 1.001-.131 3.52 0 4.496.248 1.852.669 3.263 1.429 4.783 1.073 2.147 2.591 3.856 4.687 5.277l.533.361-.413.175c-1.621.708-3.509 1.12-5.494 1.12h-.042.002c-.499 0-.993.025-1.1.055a1.06 1.06 0 0 0-.681.551l-.003.006c-.112.22-.136.339-.136.693 0 .368.02.463.144.673.187.319.353.439 1.189.864 2.073 1.053 3.952 1.695 6.107 2.085 1.405.255 3.689.367 5.073.249 1.737-.148 3.2-.451 4.66-.963 4.72-1.656 8.313-4.949 10.36-9.495 1.125-2.501 1.692-5.183 1.745-8.279l.02-1.107.331-.404a11.734 11.734 0 0 0 2.187-4.178l.021-.083c.296-1.037.107-1.599-.637-1.884-.567-.217-.884-.155-1.635.327-.333.212-.833.509-1.112.659-.505.272-1.491.709-1.597.709-.031 0-.276-.167-.544-.371-.795-.603-1.821-1.063-2.927-1.309-.387-.085-1.988-.156-2.292-.101zm1.743 2.712c1.027.219 1.86.692 2.631 1.496.32.333.565.453.928.453.241 0 .819-.143 1.252-.308.119-.047-.067.2-.54.713-.545.592-.613.777-.529 1.455.155 1.251-.004 3.307-.396 5.127-.557 2.536-1.634 4.76-3.12 6.648l.027-.035c-.465.588-1.736 1.851-2.315 2.3-1.041.808-2.456 1.639-3.573 2.1-1.347.565-2.91.97-4.542 1.139l-.072.006c-.797.077-2.567.064-3.413-.025-.892-.095-2.08-.303-2.48-.435-.044-.015.196-.119.533-.229.912-.3 1.688-.636 2.427-1.033l-.08.039c.98-.499 1.844-1.036 2.064-1.283.297-.333.461-1.024.323-1.355-.155-.371-.339-.516-1.177-.925-3.961-1.94-6.103-4.66-6.828-8.673-.161-.895-.211-1.697-.179-2.959.028-1.085.061-1.507.172-2.144l.029-.171.464.483a26.71 26.71 0 0 0 1.975 1.802l.045.036c1.865 1.5 4.248 2.508 6.856 2.904.868.131 2.787.197 3.115.108.308-.077.561-.274.71-.537l.003-.006c.128-.229.133-.281.168-1.597.029-1.168.051-1.416.151-1.76a4.732 4.732 0 0 1 3.518-3.329l.031-.006c.432-.095 1.379-.096 1.823-.001z"/></symbol>
<symbol id="spoon" viewBox="0 0 32 32"><path fill="#fd9222" d="M15.451 14.106a5.154 5.154 0 0 1-1.177-3.282c0-4.324 5.181-8.642 10.362-8.642a5.183 5.183 0 0 1 5.181 5.182c0 5.182-4.317 10.364-8.646 10.364a5.15 5.15 0 0 1-3.281-1.177L5.132 29.312a1.73 1.73 0 0 1-2.445-2.445l12.764-12.761z" style="fill:var(--color1, #fd9222)"/></symbol>
<symbol id="logo-chocolate" viewBox="0 0 32 32"><path fill="#fcf1e0" d="m14.437 6.089 1.269-2.083.16.101L11.14 1.31c.786.498 1.572.995 7.137 4.301 1.239.771 2.253 1.417 2.253 1.437.005.075-2.499 4.124-2.544 4.113a475.252 475.252 0 0 1-4.803-2.979c-.009-.007.555-.949 1.253-2.095zM22.7 8.6c.041-.065.088-.12.104-.12.044 0 .343.16.343.184 0 .012-.069.209-.153.439-.467 1.267-.444 2.616.06 3.617.304.604 1.121 1.54 1.82 2.085l.208.161-.128.223c-.069.123-.143.224-.161.224-.028 0-4.44-2.737-4.515-2.8-.012-.011 2.037-3.407 2.423-4.013zm-12.187 3.913c.685-1.131 1.264-2.056 1.287-2.057.021-.001 1.119.672 2.439 1.496 2.177 1.361 2.393 1.509 2.344 1.603l-.749 1.327c-.8 1.315-1.609 2.624-1.699 2.682-.033.035-4.647-2.791-4.821-2.952-.025-.024.515-.968 1.2-2.099zm8.327 2.434.001-.001a.263.263 0 0 1 .067-.066l1.087.628c1.442.894 2.875 1.803 3.305 2.122.06.056-.14.405-1.192 2.072-.696 1.103-1.287 2.019-1.313 2.035-.047.029-4.421-2.673-4.421-2.731 0-.032 2.385-3.957 2.467-4.059zM6.653 18.849a96.55 96.55 0 0 1 1.232-1.995c.059-.004 4.808 3 4.808 3.041 0 .076-2.451 4.077-2.497 4.077-.023 0-1.113-.672-2.424-1.493-1.589-.996-2.375-1.517-2.357-1.565.015-.039.572-.968 1.239-2.065zm7.08 4.454c.675-1.111 1.233-2.02 1.24-2.021l1.43.829c1.427.888 2.847 1.786 2.922 1.889.039.036-2.321 3.857-2.499 4.045-.056.06-.432-.157-2.193-1.261-1.169-.733-2.127-1.363-2.127-1.399 0-.035.552-.972 1.227-2.083z" style="fill:var(--color3, #fcf1e0)"/></symbol>
<symbol id="x" viewBox="0 0 32 32"><path d="M7.494 6.621a2.519 2.519 0 0 0-.472.359l.001-.001c-.527.505-.657 1.068-.369 1.567.09.154 1.537 1.657 3.715 3.857l3.568 3.604-3.6 3.61c-2.806 2.813-3.628 3.665-3.721 3.865-.243.516-.115 1.039.374 1.529.49.489 1.012.617 1.529.374.199-.095 1.053-.916 3.869-3.725l3.613-3.604 3.613 3.604c2.816 2.809 3.67 3.631 3.869 3.725.516.243 1.039.115 1.529-.374.489-.49.617-1.012.374-1.529-.093-.199-.915-1.052-3.721-3.865l-3.601-3.61 3.569-3.607c2.135-2.157 3.626-3.706 3.715-3.856.294-.506.148-1.088-.403-1.594-.489-.451-.979-.563-1.439-.329-.143.073-1.519 1.398-3.849 3.706-1.994 1.977-3.645 3.587-3.67 3.58a351.043 351.043 0 0 1-3.665-3.601l.007.007C10.031 8.038 8.633 6.691 8.492 6.62a1.168 1.168 0 0 0-1.005.004l.007-.003z"/></symbol>
<symbol id="mastercard" viewBox="0 0 51 32"><path fill="#ED0006" d="M25.6 26.935a14.53 14.53 0 0 1-9.496 3.518c-8.086 0-14.641-6.593-14.641-14.726S8.018 1.001 16.104 1.001c3.624 0 6.94 1.324 9.496 3.518a14.532 14.532 0 0 1 9.497-3.518c8.086 0 14.64 6.593 14.64 14.726s-6.555 14.726-14.64 14.726c-3.624 0-6.94-1.324-9.497-3.518z"/><path fill="#F9A000" d="M25.6 26.935c3.148-2.701 5.144-6.72 5.144-11.209S28.748 7.219 25.6 4.518A14.53 14.53 0 0 1 35.097 1c8.086 0 14.64 6.593 14.64 14.726s-6.555 14.726-14.64 14.726c-3.624 0-6.94-1.324-9.497-3.518z" /><path fill="#FF5E00" d="M25.6 26.935c3.148-2.701 5.144-6.72 5.144-11.208S28.748 7.22 25.6 4.519c-3.148 2.701-5.144 6.72-5.144 11.208s1.996 8.507 5.144 11.208z" style="fill:var(--color3, #FF5E00)"/></symbol><symbol id="flag" viewBox="0 0 32 32"><path fill="gold" d="M31.832 5.058H.243v23.508h31.589V5.058z" /><path fill="#0057B7" d="M.243 5.058h31.589v11.754H.243V5.058z" /></symbol>
</defs></svg>
<!-- Header -->
<svg aria-hidden="true" style="position: absolute; width: 0; height: 0; overflow: hidden;" version="1.1" xmlns="http://www.w3.org/2000/svg" xmlns:xlink="http://www.w3.org/1999/xlink">
<defs>
<symbol id="icon-header-logo-desk" viewBox="0 0 32 32">
<path fill="#fcf1e0" style="fill: var(--color1, #fcf1e0)" d="M3.944 20.076l10.777-17.424 0.64-0.674 8.236 5.491 0.056 3.314 2.010 3.28-8.88 14.077-12.839-8.063z"></path>
<path fill="none" stroke="#fd9222" style="stroke: var(--color2, #fd9222)" stroke-linejoin="round" stroke-linecap="round" stroke-miterlimit="4" stroke-width="2.6667" d="M21.635 23.88l-14.185-8.864M11.361 8.599l14.185 8.864M10.63 25.864l11.736-19.25M27.176 14.789c-3.040-1.899-4.234-3.384-2.278-6.592l-9.626-6.015-11.736 19.25 14.186 8.864 9.454-15.507z"></path>
</symbol>
<symbol id="icon-header-logo-mob" viewBox="0 0 32 32">
<path fill="#fcf1e0" style="fill: var(--color1, #fcf1e0)" d="M4.492 19.89l10.287-16.632 0.611-0.643 7.861 5.242 0.054 3.163 1.919 3.13-8.476 13.437-12.256-7.696z"></path>
<path fill="none" stroke="#fd9222" style="stroke: var(--color2, #fd9222)" stroke-linejoin="round" stroke-linecap="round" stroke-miterlimit="4" stroke-width="2.6182" d="M21.378 23.521l-13.541-8.461M11.572 8.935l13.541 8.461M10.874 25.416l11.202-18.375M26.668 14.844c-2.902-1.813-4.041-3.23-2.174-6.293l-9.188-5.742-11.202 18.375 13.541 8.461 9.024-14.802z"></path>
</symbol>
<symbol id="icon-header-instagram-tab" viewBox="0 0 32 32">
<path stroke-linejoin="round" stroke-linecap="round" stroke-miterlimit="4" stroke-width="2.6667" d="M22.667 2.667h-13.333c-3.682 0-6.667 2.985-6.667 6.667v13.333c0 3.682 2.985 6.667 6.667 6.667h13.333c3.682 0 6.667-2.985 6.667-6.667v-13.333c0-3.682-2.985-6.667-6.667-6.667z"></path>
<path stroke-linejoin="round" stroke-linecap="round" stroke-miterlimit="4" stroke-width="2.6667" d="M21.333 15.16c0.165 1.11-0.025 2.243-0.542 3.239s-1.334 1.803-2.336 2.307c-1.002 0.504-2.138 0.68-3.245 0.502s-2.131-0.701-2.924-1.494-1.316-1.816-1.494-2.924c-0.178-1.108-0.003-2.243 0.502-3.245s1.312-1.819 2.307-2.336c0.996-0.517 2.129-0.706 3.239-0.542 1.132 0.168 2.18 0.695 2.989 1.504s1.337 1.857 1.505 2.989z"></path>
<path stroke-linejoin="round" stroke-linecap="round" stroke-miterlimit="4" stroke-width="2.6667" d="M23.333 8.667h0.013"></path>
</symbol>
<symbol id="icon-header-close-mob" viewBox="0 0 32 32">
<path fill="none" stroke="#fff" style="stroke: var(--color3, #fff)" stroke-linejoin="round" stroke-linecap="round" stroke-miterlimit="4" stroke-width="2.2857" d="M22.667 9.333l-13.333 13.333M9.333 9.333l13.333 13.333"></path>
</symbol>
<symbol id="icon-header-close-tab" viewBox="0 0 32 32">
<path fill="none" stroke="#fff" style="stroke: var(--color3, #fff)" stroke-linejoin="round" stroke-linecap="round" stroke-miterlimit="4" stroke-width="2" d="M22.667 9.333l-13.333 13.333M9.333 9.333l13.333 13.333"></path>
</symbol>
<symbol id="icon-header-burger-mob" viewBox="0 0 32 32">
<path stroke-linejoin="round" stroke-linecap="round" stroke-miterlimit="4" stroke-width="2.2857" d="M4 16h24M4 8h24M4 24h24"></path>
</symbol>
<symbol id="icon-header-burger-tab" viewBox="0 0 32 32">
<path stroke-linejoin="round" stroke-linecap="round" stroke-miterlimit="4" stroke-width="2.5" d="M4 16h24M4 8h24M4 24h24"></path>
</symbol>

<symbol id="icon-header-twitter-mob" viewBox="0 0 32 32">
<path fill="none" d="M19.1666 2.50008C18.3686 3.06298 17.485 3.4935 16.5499 3.77508C16.048 3.198 15.381 2.78899 14.6391 2.60335C13.8972 2.41771 13.1162 2.46441 12.4017 2.73712C11.6871 3.00984 11.0736 3.49541 10.6441 4.12818C10.2145 4.76094 9.98967 5.51036 9.99992 6.27508V7.10841C8.53545 7.14639 7.08431 6.82159 5.77576 6.16295C4.46721 5.50431 3.34185 4.19886 2.49992 3C2.49992 3 -0.833415 10.8334 6.66659 14.1667C4.95036 15.3317 2.90588 15.9159 0.833252 15.8334C8.33325 20.0001 17.4999 15.8334 17.4999 6.25008C17.4992 6.01796 17.4768 5.78641 17.4333 5.55841C18.2838 4.71966 18.8839 3.66067 19.1666 2.50008Z" stroke="white" stroke-width="1.5" stroke-linecap="round" stroke-linejoin="round"/>
</symbol>

<symbol id="icon-header-instagram-mob" viewBox="0 0 32 32">
<path fill="none" d="M15.5833 1.83325H6.41658C3.88528 1.83325 1.83325 3.88528 1.83325 6.41658V15.5833C1.83325 18.1146 3.88528 20.1666 6.41658 20.1666H15.5833C18.1146 20.1666 20.1666 18.1146 20.1666 15.5833V6.41658C20.1666 3.88528 18.1146 1.83325 15.5833 1.83325Z" stroke="white" stroke-width="1.5" stroke-linecap="round" stroke-linejoin="round"/>
<path fill="none"  d="M14.6667 10.4225C14.7799 11.1854 14.6495 11.9646 14.2943 12.6491C13.9391 13.3337 13.3771 13.8888 12.6882 14.2356C11.9993 14.5823 11.2186 14.703 10.4572 14.5805C9.69576 14.4579 8.99234 14.0984 8.44699 13.5531C7.90165 13.0078 7.54214 12.3043 7.41962 11.5429C7.29709 10.7815 7.41778 10.0008 7.76452 9.31188C8.11126 8.62298 8.66639 8.06096 9.35096 7.70575C10.0355 7.35055 10.8147 7.22024 11.5776 7.33337C12.3557 7.44876 13.0762 7.81137 13.6324 8.36765C14.1887 8.92392 14.5513 9.64435 14.6667 10.4225Z" stroke="white" stroke-width="1.5" stroke-linecap="round" stroke-linejoin="round"/>
<path fill="none" d="M14.6667 10.4225C14.7799 11.1854 14.6495 11.9646 14.2943 12.6491C13.9391 13.3337 13.3771 13.8888 12.6882 14.2356C11.9993 14.5823 11.2186 14.703 10.4572 14.5805C9.69576 14.4579 8.99234 14.0984 8.44699 13.5531C7.90165 13.0078 7.54214 12.3043 7.41962 11.5429C7.29709 10.7815 7.41778 10.0008 7.76452 9.31188C8.11126 8.62298 8.66639 8.06096 9.35096 7.70575C10.0355 7.35055 10.8147 7.22024 11.5776 7.33337C12.3557 7.44876 13.0762 7.81137 13.6324 8.36765C14.1887 8.92392 14.5513 9.64435 14.6667 10.4225Z" stroke="white" stroke-width="1.5" stroke-linecap="round" stroke-linejoin="round"/>
<path fill="none" d="M16.0417 5.95825H16.0517" stroke="white" stroke-width="1.5" stroke-linecap="round" stroke-linejoin="round"/>
<path fill="none" d="M16.0417 5.95825H16.0517" stroke="white" stroke-width="1.5" stroke-linecap="round" stroke-linejoin="round"/>
</symbol>


<symbol id="icon-header-twitter-desk" viewBox="0 0 32 32">
<path fill="none" d="M19.1666 2.50008C18.3686 3.06298 17.485 3.4935 16.5499 3.77508C16.048 3.198 15.381 2.78899 14.6391 2.60335C13.8972 2.41771 13.1162 2.46441 12.4017 2.73712C11.6871 3.00984 11.0736 3.49541 10.6441 4.12818C10.2145 4.76094 9.98967 5.51036 9.99992 6.27508V7.10841C8.53545 7.14639 7.08431 6.82159 5.77576 6.16295C4.46721 5.50431 3.34185 4.19886 2.49992 3C2.49992 3 -0.833415 10.8334 6.66659 14.1667C4.95036 15.3317 2.90588 15.9159 0.833252 15.8334C8.33325 20.0001 17.4999 15.8334 17.4999 6.25008C17.4992 6.01796 17.4768 5.78641 17.4333 5.55841C18.2838 4.71966 18.8839 3.66067 19.1666 2.50008Z" stroke="black, red" stroke-width="2" stroke-linecap="round" stroke-linejoin="round"/>
</symbol>

<symbol id="icon-header-instagram-desk" viewBox="0 0 32 32">
<path fill="none" d="M15.5833 1.83325H6.41658C3.88528 1.83325 1.83325 3.88528 1.83325 6.41658V15.5833C1.83325 18.1146 3.88528 20.1666 6.41658 20.1666H15.5833C18.1146 20.1666 20.1666 18.1146 20.1666 15.5833V6.41658C20.1666 3.88528 18.1146 1.83325 15.5833 1.83325Z" stroke="black, red" stroke-width="2" stroke-linecap="round" stroke-linejoin="round"/>
<path fill="none"  d="M14.6667 10.4225C14.7799 11.1854 14.6495 11.9646 14.2943 12.6491C13.9391 13.3337 13.3771 13.8888 12.6882 14.2356C11.9993 14.5823 11.2186 14.703 10.4572 14.5805C9.69576 14.4579 8.99234 14.0984 8.44699 13.5531C7.90165 13.0078 7.54214 12.3043 7.41962 11.5429C7.29709 10.7815 7.41778 10.0008 7.76452 9.31188C8.11126 8.62298 8.66639 8.06096 9.35096 7.70575C10.0355 7.35055 10.8147 7.22024 11.5776 7.33337C12.3557 7.44876 13.0762 7.81137 13.6324 8.36765C14.1887 8.92392 14.5513 9.64435 14.6667 10.4225Z" stroke="black, red" stroke-width="2" stroke-linecap="round" stroke-linejoin="round"/>
<path fill="none" d="M14.6667 10.4225C14.7799 11.1854 14.6495 11.9646 14.2943 12.6491C13.9391 13.3337 13.3771 13.8888 12.6882 14.2356C11.9993 14.5823 11.2186 14.703 10.4572 14.5805C9.69576 14.4579 8.99234 14.0984 8.44699 13.5531C7.90165 13.0078 7.54214 12.3043 7.41962 11.5429C7.29709 10.7815 7.41778 10.0008 7.76452 9.31188C8.11126 8.62298 8.66639 8.06096 9.35096 7.70575C10.0355 7.35055 10.8147 7.22024 11.5776 7.33337C12.3557 7.44876 13.0762 7.81137 13.6324 8.36765C14.1887 8.92392 14.5513 9.64435 14.6667 10.4225Z" stroke="black, red" stroke-width="2" stroke-linecap="round" stroke-linejoin="round"/>
<path fill="none" d="M16.0417 5.95825H16.0517" stroke="black, red" stroke-width="2" stroke-linecap="round" stroke-linejoin="round"/>
<path fill="none" d="M16.0417 5.95825H16.0517" stroke="black, red" stroke-width="2" stroke-linecap="round" stroke-linejoin="round"/>
</symbol>
</defs></svg>