<svg xmlns="http://www.w3.org/2000/svg" aria-hidden="true" style="position:absolute;width:0;height:0;overflow:hidden"><defs>
<symbol id="coin" viewBox="0 0 32 32"><path fill="#fd9222" d="M16 2.667c-7.333 0-13.333 6-13.333 13.333s6 13.333 13.333 13.333 13.333-6 13.333-13.333S23.333 2.667 16 2.667zm0 24c-5.867 0-10.667-4.8-10.667-10.667S10.133 5.333 16 5.333 26.667 10.133 26.667 16 21.867 26.667 16 26.667z" style="fill:var(--color1, #fd9222)"/><path fill="#fd9222" d="M17.733 14.667h-3.467c-.667 0-1.2-.533-1.2-1.2s.533-1.2 1.2-1.2h4.933c.8 0 1.333-.533 1.333-1.333s-.533-1.333-1.333-1.333h-1.867v-1.2c0-.8-.533-1.333-1.333-1.333s-1.333.533-1.333 1.333v1.2h-.4c-2.133 0-3.867 1.733-3.867 3.867s1.733 3.867 3.867 3.867h3.333c.667 0 1.2.533 1.2 1.2s-.533 1.2-1.2 1.2h-4.933c-.8 0-1.333.533-1.333 1.333s.533 1.333 1.333 1.333h2v1.2c0 .8.533 1.333 1.333 1.333s1.333-.533 1.333-1.333v-1.2h.4c2.133 0 3.867-1.733 3.867-3.867s-1.733-3.867-3.867-3.867z" style="fill:var(--color1, #fd9222)"/></symbol>
<symbol id="tick" viewBox="0 0 32 32"><path d="M16.947 17.867a1.334 1.334 0 0 1-1.894 0l-6.107-6.12a1.334 1.334 0 1 0-1.894 1.88l6.12 6.12a4.001 4.001 0 0 0 5.654 0l6.12-6.12a1.337 1.337 0 0 0-.434-2.172 1.331 1.331 0 0 0-1.46.292l-6.107 6.12z"/></symbol>
<symbol id="chocolate" viewBox="0 0 24 24">
<path d="m2.958 15.057 8.083-13.068.48-.506 6.176 4.118.043 2.486 1.507 2.46-6.66 10.557-9.629-6.047Z"/>
  <path stroke="#FD9222" stroke-linecap="round" stroke-linejoin="round" stroke-width="2" d="m16.226 17.91-10.64-6.648m2.935-4.813 10.639 6.648M7.972 19.398l8.802-14.437m3.608 6.13c-2.28-1.424-3.175-2.537-1.708-4.943l-7.22-4.512-8.801 14.438 10.64 6.648 7.09-11.63Z"/>
</symbol>
<symbol id="icon-insta" viewBox="0 0 32 32">
<path stroke-linejoin="round" stroke-linecap="round" stroke-miterlimit="4" stroke-width="2.6667" d="M22.667 2.667h-13.333c-3.682 0-6.667 2.985-6.667 6.667v13.333c0 3.682 2.985 6.667 6.667 6.667h13.333c3.682 0 6.667-2.985 6.667-6.667v-13.333c0-3.682-2.985-6.667-6.667-6.667z"></path>
<path stroke-linejoin="round" stroke-linecap="round" stroke-miterlimit="4" stroke-width="2.6667" d="M21.333 15.16c0.165 1.11-0.025 2.243-0.542 3.239s-1.334 1.803-2.336 2.307c-1.002 0.504-2.138 0.68-3.245 0.502s-2.131-0.701-2.924-1.494-1.316-1.816-1.494-2.924c-0.178-1.108-0.003-2.243 0.502-3.245s1.312-1.819 2.307-2.336c0.996-0.517 2.129-0.706 3.239-0.542 1.132 0.168 2.18 0.695 2.989 1.504s1.337 1.857 1.505 2.989z"></path>
<path stroke-linejoin="round" stroke-linecap="round" stroke-miterlimit="4" stroke-width="2.6667" d="M23.333 8.667h0.013"></path>
</symbol>
<symbol id="icon-twitt" viewBox="0 0 32 32">
<path stroke-linejoin="round" stroke-linecap="round" stroke-miterlimit="4" stroke-width="2.6667" d="M30.667 4c-1.277 0.901-2.691 1.589-4.187 2.040-0.803-0.923-1.87-1.578-3.057-1.875s-2.437-0.222-3.58 0.214c-1.143 0.436-2.125 1.213-2.812 2.226s-1.047 2.212-1.031 3.435v1.333c-2.343 0.061-4.665-0.459-6.759-1.513s-4.561-3.563-5.908-5.481c0 0-4.667 12.954 7.333 18.287-2.746 1.864-6.017 2.799-9.333 2.667 12 6.667 26.667 0 26.667-15.333-0.001-0.371-0.037-0.742-0.107-1.107 1.361-1.342 2.321-3.036 2.773-4.893z"></path>
</symbol>
<symbol id="icon-instagram" viewBox="0 0 24 24">
<path d="M6.38 1.043c-1.441 0.147-2.709 0.794-3.648 1.761l-0.001 0.001c-0.943 0.941-1.566 2.203-1.69 3.609l-0.002 0.022c-0.049 0.504-0.049 10.624 0 11.128 0.131 1.463 0.782 2.753 1.764 3.703l0.002 0.002c0.941 0.943 2.203 1.566 3.609 1.69l0.022 0.002c0.504 0.049 10.624 0.049 11.128 0 1.428-0.126 2.69-0.749 3.631-1.692l0-0c0.984-0.952 1.635-2.242 1.764-3.682l0.002-0.023c0.049-0.504 0.049-10.624 0-11.128-0.131-1.463-0.782-2.753-1.764-3.703l-0.002-0.002c-0.941-0.943-2.203-1.566-3.609-1.69l-0.022-0.002c-0.464-0.045-10.724-0.042-11.184 0.004zM17.773 3.083c1.592 0.32 2.825 1.553 3.141 3.119l0.004 0.026c0.080 0.397 0.082 0.51 0.082 5.772 0 5.266-0.002 5.375-0.083 5.773-0.32 1.592-1.553 2.825-3.119 3.141l-0.026 0.004c-0.397 0.080-0.51 0.082-5.772 0.082s-5.375-0.002-5.772-0.082c-1.592-0.32-2.825-1.553-3.141-3.119l-0.004-0.026c-0.081-0.398-0.083-0.507-0.083-5.773s0.002-5.375 0.083-5.773c0.32-1.583 1.541-2.811 3.094-3.137l0.026-0.005c0.364-0.077 0.557-0.079 5.771-0.082 5.298-0.003 5.401-0.002 5.799 0.080zM17.258 5.519c-0.516 0.077-0.745 0.377-0.748 0.981-0.003 0.684 0.3 0.987 0.989 0.99 0.359 0.001 0.571-0.067 0.754-0.242 0.185-0.176 0.241-0.348 0.243-0.748 0.002-0.405-0.073-0.606-0.293-0.792-0.203-0.17-0.572-0.244-0.945-0.189zM11.12 7.041c-2.090 0.401-3.677 2.039-4.025 4.153-0.075 0.456-0.056 1.304 0.040 1.746 0.198 0.972 0.659 1.815 1.305 2.476l-0.001-0.001c0.904 0.946 2.058 1.469 3.381 1.533 2.528 0.121 4.742-1.675 5.162-4.188 0.082-0.49 0.062-1.362-0.043-1.84-0.148-0.679-0.48-1.424-0.862-1.93-0.317-0.4-0.667-0.751-1.054-1.059l-0.013-0.010c-0.337-0.256-1.133-0.651-1.53-0.76-0.768-0.211-1.654-0.256-2.36-0.12zM12.592 9.021c0.789 0.15 1.508 0.629 1.965 1.31 0.323 0.482 0.509 1.197 0.47 1.809-0.048 0.748-0.335 1.37-0.887 1.925-0.31 0.312-0.417 0.391-0.741 0.547-0.534 0.258-0.806 0.322-1.359 0.32-0.866-0.002-1.491-0.262-2.101-0.871-0.608-0.608-0.867-1.231-0.873-2.101-0.003-0.549 0.086-0.917 0.344-1.418 0.233-0.451 0.763-0.98 1.21-1.209 0.691-0.353 1.272-0.445 1.972-0.312z"></path>
</symbol>
<symbol id="icon-twitter" viewBox="0 0 24 24">
<path d="M15.84 2.024c-0.854 0.156-1.198 0.259-1.74 0.518-0.661 0.317-1.283 0.784-1.711 1.285-0.837 0.98-1.289 2.062-1.372 3.281l-0.028 0.409-0.185-0.022c-1.567-0.184-2.975-0.659-4.051-1.368-1.039-0.685-2.315-1.934-3.316-3.247-0.315-0.414-0.345-0.444-0.565-0.561-0.211-0.112-0.446-0.101-0.734 0.036-0.32 0.151-0.496 0.361-0.629 0.754-0.217 0.634-0.438 1.685-0.576 2.732-0.098 0.751-0.098 2.64 0 3.372 0.186 1.389 0.502 2.447 1.072 3.587 0.805 1.61 1.943 2.892 3.515 3.958l0.4 0.271-0.31 0.131c-1.215 0.531-2.632 0.84-4.12 0.84-0.010 0-0.021-0-0.031-0h0.002c-0.374 0-0.745 0.019-0.825 0.041-0.227 0.060-0.41 0.213-0.511 0.413l-0.002 0.005c-0.084 0.165-0.102 0.254-0.102 0.52 0 0.276 0.015 0.347 0.108 0.505 0.14 0.239 0.265 0.329 0.892 0.648 1.555 0.79 2.964 1.271 4.58 1.564 1.054 0.191 2.767 0.275 3.805 0.187 1.303-0.111 2.4-0.338 3.495-0.722 3.54-1.242 6.235-3.712 7.77-7.121 0.844-1.876 1.269-3.887 1.309-6.209l0.015-0.83 0.248-0.303c0.736-0.899 1.305-1.967 1.641-3.133l0.015-0.063c0.222-0.778 0.080-1.199-0.478-1.413-0.425-0.163-0.663-0.116-1.226 0.245-0.25 0.159-0.625 0.382-0.834 0.494-0.379 0.204-1.118 0.532-1.198 0.532-0.023 0-0.207-0.125-0.408-0.278-0.596-0.452-1.366-0.797-2.195-0.982-0.29-0.064-1.491-0.117-1.719-0.076zM17.147 4.058c0.77 0.164 1.395 0.519 1.973 1.122 0.24 0.25 0.424 0.34 0.696 0.34 0.181 0 0.614-0.107 0.939-0.231 0.089-0.035-0.050 0.15-0.405 0.535-0.409 0.444-0.46 0.583-0.397 1.091 0.116 0.938-0.003 2.48-0.297 3.845-0.417 1.902-1.226 3.57-2.34 4.986l0.020-0.026c-0.349 0.441-1.302 1.388-1.736 1.725-0.781 0.606-1.842 1.229-2.68 1.575-1.011 0.424-2.182 0.728-3.406 0.854l-0.054 0.005c-0.598 0.058-1.925 0.048-2.56-0.019-0.669-0.071-1.56-0.227-1.86-0.326-0.033-0.011 0.147-0.089 0.4-0.172 0.684-0.225 1.266-0.477 1.82-0.774l-0.060 0.029c0.735-0.374 1.383-0.777 1.548-0.962 0.223-0.25 0.346-0.768 0.242-1.016-0.116-0.278-0.254-0.387-0.883-0.694-2.971-1.455-4.577-3.495-5.121-6.505-0.121-0.671-0.158-1.273-0.134-2.219 0.021-0.814 0.046-1.13 0.129-1.608l0.022-0.128 0.348 0.362c0.472 0.476 0.965 0.926 1.481 1.352l0.034 0.027c1.399 1.125 3.186 1.881 5.142 2.178 0.651 0.098 2.090 0.148 2.336 0.081 0.231-0.058 0.421-0.205 0.533-0.403l0.002-0.004c0.096-0.172 0.1-0.211 0.126-1.198 0.022-0.876 0.038-1.062 0.113-1.32 0.362-1.26 1.373-2.217 2.639-2.497l0.023-0.004c0.324-0.071 1.034-0.072 1.367-0.001z"></path>
</symbol>
<symbol id="insta-mob" viewBox="0 0 22 22">
<path d="M8.084 1.684c-3.322 0.559-5.857 3.12-6.407 6.474-0.111 0.673-0.111 15.009 0 15.683 0.337 2.065 1.408 3.833 3.059 5.055 0.952 0.714 2.103 1.217 3.355 1.417l0.044 0.006c0.756 0.122 14.973 0.122 15.729 0 1.687-0.261 3.156-1.047 4.269-2.182l0.001-0.001c1.137-1.115 1.922-2.584 2.178-4.228l0.005-0.042c0.122-0.756 0.122-14.973 0-15.729-0.261-1.687-1.047-3.156-2.182-4.269l-0.001-0.001c-0.887-0.908-2.001-1.59-3.25-1.955l-0.053-0.013c-1.050-0.304-0.826-0.297-8.897-0.291-5.911 0.006-7.514 0.022-7.85 0.079zM23.156 3.788c1.28 0.121 2.39 0.62 3.318 1.491 0.968 0.906 1.609 2.151 1.737 3.543l0.002 0.022c0.073 0.768 0.073 13.545 0 14.313-0.129 1.415-0.77 2.659-1.735 3.562l-0.003 0.003c-0.872 0.832-2.022 1.379-3.297 1.489l-0.020 0.001c-0.807 0.077-13.567 0.073-14.332-0.004-2.357-0.224-4.272-1.885-4.871-4.089l-0.009-0.039c-0.196-0.726-0.211-1.313-0.211-8.080s0.015-7.354 0.211-8.080c0.604-2.234 2.554-3.91 4.801-4.128 0.676-0.065 13.724-0.070 14.41-0.004zM22.854 7.654c-0.388 0.137-0.614 0.509-0.614 1.012 0 0.7 0.409 1.097 1.12 1.091 0.681-0.006 1.065-0.399 1.065-1.091 0-0.346-0.121-0.679-0.307-0.845-0.265-0.234-0.854-0.313-1.264-0.167zM15.395 9.549c-2.238 0.25-4.11 1.61-5.074 3.508l-0.017 0.037c-0.739 1.469-0.863 3.388-0.319 4.932 0.772 2.189 2.535 3.734 4.815 4.217 0.608 0.129 1.744 0.14 2.381 0.022 2.241-0.414 4.049-1.939 4.856-3.971l0.015-0.044c0.267-0.686 0.422-1.48 0.422-2.31 0-0.854-0.164-1.67-0.463-2.418l0.015 0.044c-0.606-1.482-1.701-2.661-3.082-3.358l-0.037-0.017c-0.839-0.425-1.829-0.674-2.877-0.674-0.225 0-0.446 0.011-0.665 0.034l0.027-0.002zM17.066 11.825c1.536 0.362 2.79 1.655 3.123 3.223 0.468 2.195-0.845 4.364-3.015 4.985-0.269 0.077-0.528 0.099-1.148 0.099-0.694 0.001-0.848-0.015-1.167-0.122-1.9-0.637-3.020-2.172-3.020-4.138 0-1.040 0.33-1.887 1.081-2.764 0.959-1.123 2.631-1.641 4.145-1.283z"></path>
</symbol>
<symbol id="twitt-mob" viewBox="0 0 22 22">
<path d="M21.181 2.83c-0.905 0.118-1.727 0.374-2.479 0.748l0.045-0.020c-1.328 0.661-2.518 1.859-3.208 3.23-0.426 0.843-0.712 2.014-0.712 2.904v0.44h-0.21c-0.231-0.009-0.448-0.028-0.661-0.058l0.034 0.004c-1.707-0.227-3.68-0.906-4.88-1.68-1.224-0.789-2.542-2.126-3.867-3.925-0.568-0.77-0.768-0.922-1.19-0.914-0.533 0.010-0.973 0.347-1.218 0.936-0.485 1.163-0.947 3.179-1.126 4.906-0.077 0.739-0.080 2.456-0.005 3.211 0.41 4.12 2.392 7.4 5.872 9.717 0.293 0.195 0.531 0.371 0.531 0.394 0 0.061-1.070 0.493-1.814 0.733-1.382 0.445-2.562 0.635-4.237 0.683-0.589 0.016-1.146 0.054-1.24 0.082-0.427 0.13-0.653 0.498-0.654 1.066-0.003 0.645 0.179 0.874 1.066 1.342 4.67 2.475 10.075 3.126 14.88 1.792 3.742-1.040 7.115-3.342 9.374-6.4 2.395-3.24 3.691-7.357 3.691-11.73v-0.989l0.354-0.424c1.018-1.241 1.795-2.721 2.237-4.34l0.019-0.083c0.141-0.541 0.139-0.75-0.010-1.045-0.179-0.354-0.53-0.55-1.027-0.576-0.434-0.022-0.466-0.010-1.186 0.454-0.557 0.366-1.2 0.719-1.871 1.020l-0.089 0.036c-0.784 0.341-0.747 0.341-1.123 0.035-1.239-0.989-2.829-1.588-4.558-1.588-0.26 0-0.517 0.014-0.77 0.040l0.032-0.003zM22.597 5.232c0.667 0.102 1.266 0.314 1.808 0.617l-0.027-0.014c0.227 0.133 0.648 0.466 0.963 0.763 0.806 0.757 0.922 0.781 2.002 0.414 0.389-0.131 0.722-0.24 0.738-0.24 0.066 0-0.301 0.474-0.738 0.952-0.25 0.275-0.493 0.578-0.539 0.675-0.091 0.194-0.102 0.586-0.034 1.173 0.054 0.464-0.019 2.176-0.133 3.067-0.821 6.512-4.736 11.411-10.632 13.304-2.581 0.829-5.416 0.986-8.283 0.459-0.63-0.116-1.147-0.24-1.654-0.386l0.119 0.030c-0.045-0.016 0.205-0.11 0.555-0.211 1.57-0.454 3.934-1.598 4.712-2.282 0.259-0.256 0.424-0.607 0.438-0.996l0-0.003c0-0.525-0.179-0.702-1.264-1.24-1.493-0.742-2.578-1.488-3.526-2.429-1.925-1.904-2.878-4.146-3.078-7.234-0.064-0.979 0.062-2.304 0.389-4.094 0.014-0.083 0.045-0.142 0.067-0.134 0.021 0.010 0.267 0.269 0.544 0.576 1.194 1.323 2.456 2.309 3.826 2.992 1.877 0.934 3.677 1.403 5.934 1.546 1.382 0.088 1.886 0.006 2.168-0.352 0.182-0.234 0.213-0.435 0.24-1.678 0.037-1.573 0.155-2.085 0.696-3.014 0.307-0.525 1.166-1.373 1.685-1.664 0.685-0.402 1.508-0.639 2.387-0.639 0.225 0 0.446 0.016 0.662 0.046l-0.025-0.003z"></path>
</symbol>
<symbol id="instagram" viewBox="0 0 32 32"><path d="M8.507 1.391a7.864 7.864 0 0 0-4.863 2.347l-.002.002a7.754 7.754 0 0 0-2.254 4.812l-.002.03c-.065.672-.065 14.165 0 14.837a7.807 7.807 0 0 0 2.353 4.938l.002.002a7.754 7.754 0 0 0 4.812 2.254l.03.002c.672.065 14.165.065 14.837 0a7.77 7.77 0 0 0 4.841-2.256 7.793 7.793 0 0 0 2.352-4.91l.002-.03c.065-.672.065-14.165 0-14.837a7.811 7.811 0 0 0-2.352-4.938l-.002-.002a7.754 7.754 0 0 0-4.812-2.254l-.03-.002c-.619-.06-14.299-.056-14.912.005zm15.19 2.72a5.33 5.33 0 0 1 4.188 4.159l.006.034c.107.529.109.68.109 7.696 0 7.021-.003 7.167-.111 7.697a5.33 5.33 0 0 1-4.159 4.188l-.034.006c-.529.107-.68.109-7.696.109s-7.167-.003-7.696-.109a5.33 5.33 0 0 1-4.188-4.159l-.006-.034c-.108-.531-.111-.676-.111-7.697s.003-7.167.111-7.697a5.341 5.341 0 0 1 4.125-4.183l.035-.006c.485-.103.743-.105 7.695-.109 7.064-.004 7.201-.003 7.732.107zm-.686 3.248c.497-.073.989.025 1.26.252.293.248.393.516.391 1.056-.003.533-.077.763-.324.997-.244.233-.527.324-1.005.323-.919-.004-1.323-.408-1.319-1.32.004-.805.309-1.205.997-1.308zm-8.184 2.029c-2.787.535-4.903 2.719-5.367 5.537-.1.608-.075 1.739.053 2.328a6.557 6.557 0 0 0 1.74 3.301l-.001-.001c1.205 1.261 2.744 1.959 4.508 2.044 3.371.161 6.323-2.233 6.883-5.584.109-.653.083-1.816-.057-2.453-.197-.905-.64-1.899-1.149-2.573a8.69 8.69 0 0 0-1.405-1.412l-.018-.013c-.449-.341-1.511-.868-2.04-1.013-1.024-.281-2.205-.341-3.147-.16zm1.962 2.64c1.052.2 2.011.839 2.62 1.747.431.643.679 1.596.627 2.412-.064.997-.447 1.827-1.183 2.567-.413.416-.556.521-.988.729-.712.344-1.075.429-1.812.427-1.155-.003-1.988-.349-2.801-1.161-.811-.811-1.156-1.641-1.164-2.801-.004-.732.115-1.223.459-1.891.311-.601 1.017-1.307 1.613-1.612.921-.471 1.696-.593 2.629-.416z"/></symbol>
<symbol id="chocolate-bar" viewBox="0 0 32 32"><path d="m13.822 2.413 7.527 7.536.08-.08a.856.856 0 0 1 1.184-.013l.873.873c.305.305.315.77.083 1.094l-.004.007-.143.192 6.16 6.16c.55.55.55 1.43 0 1.98l-9.43 9.43c-.55.55-1.43.55-1.98 0l-4.447-4.447a.853.853 0 0 1-.612.317.842.842 0 0 1-.644-.246l-2.6-2.6a.856.856 0 0 1-.013-1.184l.006-.007.077-.076-7.527-7.527c-.55-.55-.55-1.43 0-1.98l9.43-9.43c.55-.55 1.43-.55 1.98 0v.001zm6.582 8.48-1.756-1.755a.59.59 0 0 0-.85 0l-3.58 3.58a.621.621 0 0 0-.179.43.602.602 0 0 0 .179.43l1.749 1.749.61-.61-1.565-1.565 3.21-3.22 1.569 1.574.613-.613zm-5.076 5.072-1.754-1.754a.59.59 0 0 0-.85 0l-3.59 3.59c-.24.23-.24.61 0 .85l1.752 1.752.616-.616-1.57-1.564 3.22-3.21 1.564 1.563.612-.611zM8.822 8.193l3.58 3.58c.24.24.62.24.85-.01l3.58-3.58a.57.57 0 0 0 .18-.42h.01c0-.15-.06-.31-.18-.43l-3.58-3.58a.602.602 0 0 0-.86 0l-3.58 3.59c-.24.23-.24.61 0 .85zm-5.07 5.07 3.58 3.58c.24.24.62.24.85 0l3.58-3.58a.578.578 0 0 0 .18-.43h.01c0-.16-.06-.31-.18-.43l-3.58-3.58a.59.59 0 0 0-.85 0l-3.59 3.59c-.24.23-.24.61 0 .85zm6.933 8.754 2.362 2.363 9.636-13.04-.655-.655-11.343 11.332z" style="fill:var(--color2, #000)"/><path fill="#fd9222" d="m13.822 2.413 7.527 7.536.08-.08a.856.856 0 0 1 1.184-.013l.873.873c.305.305.315.77.083 1.094l-.004.007-.143.192 6.16 6.16c.55.55.55 1.43 0 1.98l-9.43 9.43c-.55.55-1.43.55-1.98 0l-4.447-4.447a.853.853 0 0 1-.612.317.842.842 0 0 1-.644-.246l-2.6-2.6a.856.856 0 0 1-.013-1.184l.006-.007.077-.076-7.527-7.527c-.55-.55-.55-1.43 0-1.98l9.43-9.43c.55-.55 1.43-.55 1.98 0v.001zm6.582 8.48-1.756-1.755a.59.59 0 0 0-.85 0l-3.58 3.58a.621.621 0 0 0-.179.43.602.602 0 0 0 .179.43l1.749 1.749.61-.61-1.565-1.565 3.21-3.22 1.569 1.574.613-.613zm-5.076 5.072-1.754-1.754a.59.59 0 0 0-.85 0l-3.59 3.59c-.24.23-.24.61 0 .85l1.752 1.752.616-.616-1.57-1.564 3.22-3.21 1.564 1.563.612-.611zM8.822 8.193l3.58 3.58c.24.24.62.24.85-.01l3.58-3.58a.57.57 0 0 0 .18-.42h.01c0-.15-.06-.31-.18-.43l-3.58-3.58a.602.602 0 0 0-.86 0l-3.58 3.59c-.24.23-.24.61 0 .85zm-5.07 5.07 3.58 3.58c.24.24.62.24.85 0l3.58-3.58a.578.578 0 0 0 .18-.43h.01c0-.16-.06-.31-.18-.43l-3.58-3.58a.59.59 0 0 0-.85 0l-3.59 3.59c-.24.23-.24.61 0 .85zm6.933 8.754 2.362 2.363 9.636-13.04-.655-.655-11.343 11.332z" style="fill:var(--color1, #fd9222)"/></symbol>
<symbol id="menu" viewBox="0 0 32 32"><path d="m3.32 6.91.274-.137h24.812l.274.137c.382.191.547.518.547 1.09s-.165.899-.547 1.09l-.274.137H3.594L3.32 9.09c-.382-.191-.547-.518-.547-1.09s.165-.899.547-1.09zm0 8 .274-.137h24.812l.274.137c.382.191.547.518.547 1.09s-.165.899-.547 1.09l-.274.137H3.594l-.274-.137c-.382-.191-.547-.518-.547-1.09s.165-.899.547-1.09zm0 8 .274-.137h24.812l.274.137c.382.191.547.518.547 1.09s-.165.899-.547 1.09l-.274.137H3.594l-.274-.137c-.382-.191-.547-.518-.547-1.09s.165-.899.547-1.09z"/></symbol>
<symbol id="twitter" viewBox="0 0 32 32"><path d="M21.12 2.699c-1.139.208-1.597.345-2.32.691-.881.423-1.711 1.045-2.281 1.713C15.403 6.41 14.8 7.852 14.69 9.478l-.037.545-.247-.029c-2.089-.245-3.967-.879-5.401-1.824-1.385-.913-3.087-2.579-4.421-4.329-.42-.552-.46-.592-.753-.748-.281-.149-.595-.135-.979.048-.427.201-.661.481-.839 1.005-.289.845-.584 2.247-.768 3.643-.131 1.001-.131 3.52 0 4.496.248 1.852.669 3.263 1.429 4.783 1.073 2.147 2.591 3.856 4.687 5.277l.533.361-.413.175c-1.621.708-3.509 1.12-5.494 1.12h-.042.002c-.499 0-.993.025-1.1.055a1.06 1.06 0 0 0-.681.551l-.003.006c-.112.22-.136.339-.136.693 0 .368.02.463.144.673.187.319.353.439 1.189.864 2.073 1.053 3.952 1.695 6.107 2.085 1.405.255 3.689.367 5.073.249 1.737-.148 3.2-.451 4.66-.963 4.72-1.656 8.313-4.949 10.36-9.495 1.125-2.501 1.692-5.183 1.745-8.279l.02-1.107.331-.404a11.734 11.734 0 0 0 2.187-4.178l.021-.083c.296-1.037.107-1.599-.637-1.884-.567-.217-.884-.155-1.635.327-.333.212-.833.509-1.112.659-.505.272-1.491.709-1.597.709-.031 0-.276-.167-.544-.371-.795-.603-1.821-1.063-2.927-1.309-.387-.085-1.988-.156-2.292-.101zm1.743 2.712c1.027.219 1.86.692 2.631 1.496.32.333.565.453.928.453.241 0 .819-.143 1.252-.308.119-.047-.067.2-.54.713-.545.592-.613.777-.529 1.455.155 1.251-.004 3.307-.396 5.127-.557 2.536-1.634 4.76-3.12 6.648l.027-.035c-.465.588-1.736 1.851-2.315 2.3-1.041.808-2.456 1.639-3.573 2.1-1.347.565-2.91.97-4.542 1.139l-.072.006c-.797.077-2.567.064-3.413-.025-.892-.095-2.08-.303-2.48-.435-.044-.015.196-.119.533-.229.912-.3 1.688-.636 2.427-1.033l-.08.039c.98-.499 1.844-1.036 2.064-1.283.297-.333.461-1.024.323-1.355-.155-.371-.339-.516-1.177-.925-3.961-1.94-6.103-4.66-6.828-8.673-.161-.895-.211-1.697-.179-2.959.028-1.085.061-1.507.172-2.144l.029-.171.464.483a26.71 26.71 0 0 0 1.975 1.802l.045.036c1.865 1.5 4.248 2.508 6.856 2.904.868.131 2.787.197 3.115.108.308-.077.561-.274.71-.537l.003-.006c.128-.229.133-.281.168-1.597.029-1.168.051-1.416.151-1.76a4.732 4.732 0 0 1 3.518-3.329l.031-.006c.432-.095 1.379-.096 1.823-.001z"/></symbol>
<symbol id="spoon" viewBox="0 0 32 32"><path fill="#fd9222" d="M15.451 14.106a5.154 5.154 0 0 1-1.177-3.282c0-4.324 5.181-8.642 10.362-8.642a5.183 5.183 0 0 1 5.181 5.182c0 5.182-4.317 10.364-8.646 10.364a5.15 5.15 0 0 1-3.281-1.177L5.132 29.312a1.73 1.73 0 0 1-2.445-2.445l12.764-12.761z" style="fill:var(--color1, #fd9222)"/></symbol>
<symbol id="logo-chocolate" viewBox="0 0 32 32"><path fill="#fcf1e0" d="m14.437 6.089 1.269-2.083.16.101L11.14 1.31c.786.498 1.572.995 7.137 4.301 1.239.771 2.253 1.417 2.253 1.437.005.075-2.499 4.124-2.544 4.113a475.252 475.252 0 0 1-4.803-2.979c-.009-.007.555-.949 1.253-2.095zM22.7 8.6c.041-.065.088-.12.104-.12.044 0 .343.16.343.184 0 .012-.069.209-.153.439-.467 1.267-.444 2.616.06 3.617.304.604 1.121 1.54 1.82 2.085l.208.161-.128.223c-.069.123-.143.224-.161.224-.028 0-4.44-2.737-4.515-2.8-.012-.011 2.037-3.407 2.423-4.013zm-12.187 3.913c.685-1.131 1.264-2.056 1.287-2.057.021-.001 1.119.672 2.439 1.496 2.177 1.361 2.393 1.509 2.344 1.603l-.749 1.327c-.8 1.315-1.609 2.624-1.699 2.682-.033.035-4.647-2.791-4.821-2.952-.025-.024.515-.968 1.2-2.099zm8.327 2.434.001-.001a.263.263 0 0 1 .067-.066l1.087.628c1.442.894 2.875 1.803 3.305 2.122.06.056-.14.405-1.192 2.072-.696 1.103-1.287 2.019-1.313 2.035-.047.029-4.421-2.673-4.421-2.731 0-.032 2.385-3.957 2.467-4.059zM6.653 18.849a96.55 96.55 0 0 1 1.232-1.995c.059-.004 4.808 3 4.808 3.041 0 .076-2.451 4.077-2.497 4.077-.023 0-1.113-.672-2.424-1.493-1.589-.996-2.375-1.517-2.357-1.565.015-.039.572-.968 1.239-2.065zm7.08 4.454c.675-1.111 1.233-2.02 1.24-2.021l1.43.829c1.427.888 2.847 1.786 2.922 1.889.039.036-2.321 3.857-2.499 4.045-.056.06-.432-.157-2.193-1.261-1.169-.733-2.127-1.363-2.127-1.399 0-.035.552-.972 1.227-2.083z" style="fill:var(--color3, #fcf1e0)"/></symbol>
<symbol id="x" viewBox="0 0 32 32"><path d="M7.494 6.621a2.519 2.519 0 0 0-.472.359l.001-.001c-.527.505-.657 1.068-.369 1.567.09.154 1.537 1.657 3.715 3.857l3.568 3.604-3.6 3.61c-2.806 2.813-3.628 3.665-3.721 3.865-.243.516-.115 1.039.374 1.529.49.489 1.012.617 1.529.374.199-.095 1.053-.916 3.869-3.725l3.613-3.604 3.613 3.604c2.816 2.809 3.67 3.631 3.869 3.725.516.243 1.039.115 1.529-.374.489-.49.617-1.012.374-1.529-.093-.199-.915-1.052-3.721-3.865l-3.601-3.61 3.569-3.607c2.135-2.157 3.626-3.706 3.715-3.856.294-.506.148-1.088-.403-1.594-.489-.451-.979-.563-1.439-.329-.143.073-1.519 1.398-3.849 3.706-1.994 1.977-3.645 3.587-3.67 3.58a351.043 351.043 0 0 1-3.665-3.601l.007.007C10.031 8.038 8.633 6.691 8.492 6.62a1.168 1.168 0 0 0-1.005.004l.007-.003z"/></symbol>
<symbol id="mastercard" viewBox="0 0 51 32"><path fill="#ED0006" d="M25.6 26.935a14.53 14.53 0 0 1-9.496 3.518c-8.086 0-14.641-6.593-14.641-14.726S8.018 1.001 16.104 1.001c3.624 0 6.94 1.324 9.496 3.518a14.532 14.532 0 0 1 9.497-3.518c8.086 0 14.64 6.593 14.64 14.726s-6.555 14.726-14.64 14.726c-3.624 0-6.94-1.324-9.497-3.518z"/><path fill="#F9A000" d="M25.6 26.935c3.148-2.701 5.144-6.72 5.144-11.209S28.748 7.219 25.6 4.518A14.53 14.53 0 0 1 35.097 1c8.086 0 14.64 6.593 14.64 14.726s-6.555 14.726-14.64 14.726c-3.624 0-6.94-1.324-9.497-3.518z" /><path fill="#FF5E00" d="M25.6 26.935c3.148-2.701 5.144-6.72 5.144-11.208S28.748 7.22 25.6 4.519c-3.148 2.701-5.144 6.72-5.144 11.208s1.996 8.507 5.144 11.208z" style="fill:var(--color3, #FF5E00)"/></symbol><symbol id="flag" viewBox="0 0 32 32"><path fill="gold" d="M31.832 5.058H.243v23.508h31.589V5.058z" /><path fill="#0057B7" d="M.243 5.058h31.589v11.754H.243V5.058z" /></symbol>
</defs></svg>