<svg xmlns="http://www.w3.org/2000/svg" aria-hidden="true" style="position:absolute;width:0;height:0;overflow:hidden"><defs>
<symbol id="coin" viewBox="0 0 32 32"><path fill="#fd9222" d="M16 2.667c-7.333 0-13.333 6-13.333 13.333s6 13.333 13.333 13.333 13.333-6 13.333-13.333S23.333 2.667 16 2.667zm0 24c-5.867 0-10.667-4.8-10.667-10.667S10.133 5.333 16 5.333 26.667 10.133 26.667 16 21.867 26.667 16 26.667z" style="fill:var(--color1, #fd9222)"/><path fill="#fd9222" d="M17.733 14.667h-3.467c-.667 0-1.2-.533-1.2-1.2s.533-1.2 1.2-1.2h4.933c.8 0 1.333-.533 1.333-1.333s-.533-1.333-1.333-1.333h-1.867v-1.2c0-.8-.533-1.333-1.333-1.333s-1.333.533-1.333 1.333v1.2h-.4c-2.133 0-3.867 1.733-3.867 3.867s1.733 3.867 3.867 3.867h3.333c.667 0 1.2.533 1.2 1.2s-.533 1.2-1.2 1.2h-4.933c-.8 0-1.333.533-1.333 1.333s.533 1.333 1.333 1.333h2v1.2c0 .8.533 1.333 1.333 1.333s1.333-.533 1.333-1.333v-1.2h.4c2.133 0 3.867-1.733 3.867-3.867s-1.733-3.867-3.867-3.867z" style="fill:var(--color1, #fd9222)"/></symbol>
<symbol id="tick" viewBox="0 0 32 32"><path fill="#fd9222" d="M16.947 17.867a1.334 1.334 0 0 1-1.894 0l-6.107-6.12a1.334 1.334 0 1 0-1.894 1.88l6.12 6.12a4.001 4.001 0 0 0 5.654 0l6.12-6.12a1.337 1.337 0 0 0-.434-2.172 1.331 1.331 0 0 0-1.46.292l-6.107 6.12z" style="fill:var(--color1, #fd9222)"/></symbol>
<symbol id="chocolate" viewBox="0 0 24 24">
<path d="m2.958 15.057 8.083-13.068.48-.506 6.176 4.118.043 2.486 1.507 2.46-6.66 10.557-9.629-6.047Z"/>
  <path stroke="#FD9222" stroke-linecap="round" stroke-linejoin="round" stroke-width="2" d="m16.226 17.91-10.64-6.648m2.935-4.813 10.639 6.648M7.972 19.398l8.802-14.437m3.608 6.13c-2.28-1.424-3.175-2.537-1.708-4.943l-7.22-4.512-8.801 14.438 10.64 6.648 7.09-11.63Z"/>
</symbol>
<symbol id="insta" viewBox="0 0 24 24">
<path d="M8.507 1.391c-1.921 0.197-3.611 1.058-4.863 2.347l-0.002 0.002c-1.258 1.255-2.088 2.938-2.254 4.812l-0.002 0.030c-0.065 0.672-0.065 14.165 0 14.837 0.175 1.951 1.043 3.671 2.353 4.938l0.002 0.002c1.255 1.258 2.938 2.088 4.812 2.254l0.030 0.002c0.672 0.065 14.165 0.065 14.837 0 1.903-0.168 3.586-0.998 4.841-2.256l0-0c1.312-1.269 2.179-2.989 2.352-4.91l0.002-0.030c0.065-0.672 0.065-14.165 0-14.837-0.175-1.951-1.043-3.671-2.352-4.938l-0.002-0.002c-1.255-1.258-2.938-2.088-4.812-2.254l-0.030-0.002c-0.619-0.060-14.299-0.056-14.912 0.005zM23.697 4.111c2.122 0.426 3.767 2.071 4.188 4.159l0.006 0.034c0.107 0.529 0.109 0.68 0.109 7.696 0 7.021-0.003 7.167-0.111 7.697-0.426 2.122-2.071 3.767-4.159 4.188l-0.034 0.006c-0.529 0.107-0.68 0.109-7.696 0.109s-7.167-0.003-7.696-0.109c-2.122-0.426-3.767-2.071-4.188-4.159l-0.006-0.034c-0.108-0.531-0.111-0.676-0.111-7.697s0.003-7.167 0.111-7.697c0.426-2.11 2.054-3.748 4.125-4.183l0.035-0.006c0.485-0.103 0.743-0.105 7.695-0.109 7.064-0.004 7.201-0.003 7.732 0.107zM23.011 7.359c-0.688 0.103-0.993 0.503-0.997 1.308-0.004 0.912 0.4 1.316 1.319 1.32 0.479 0.001 0.761-0.089 1.005-0.323 0.247-0.235 0.321-0.464 0.324-0.997 0.003-0.54-0.097-0.808-0.391-1.056-0.271-0.227-0.763-0.325-1.26-0.252zM14.827 9.388c-2.787 0.535-4.903 2.719-5.367 5.537-0.1 0.608-0.075 1.739 0.053 2.328 0.264 1.296 0.878 2.42 1.74 3.301l-0.001-0.001c1.205 1.261 2.744 1.959 4.508 2.044 3.371 0.161 6.323-2.233 6.883-5.584 0.109-0.653 0.083-1.816-0.057-2.453-0.197-0.905-0.64-1.899-1.149-2.573-0.423-0.534-0.89-1.002-1.405-1.412l-0.018-0.013c-0.449-0.341-1.511-0.868-2.040-1.013-1.024-0.281-2.205-0.341-3.147-0.16zM16.789 12.028c1.052 0.2 2.011 0.839 2.62 1.747 0.431 0.643 0.679 1.596 0.627 2.412-0.064 0.997-0.447 1.827-1.183 2.567-0.413 0.416-0.556 0.521-0.988 0.729-0.712 0.344-1.075 0.429-1.812 0.427-1.155-0.003-1.988-0.349-2.801-1.161-0.811-0.811-1.156-1.641-1.164-2.801-0.004-0.732 0.115-1.223 0.459-1.891 0.311-0.601 1.017-1.307 1.613-1.612 0.921-0.471 1.696-0.593 2.629-0.416z"></path>
</symbol>
<symbol id="twitt" viewBox="0 0 24 24">
<path d="M21.12 2.699c-1.139 0.208-1.597 0.345-2.32 0.691-0.881 0.423-1.711 1.045-2.281 1.713-1.116 1.307-1.719 2.749-1.829 4.375l-0.037 0.545-0.247-0.029c-2.089-0.245-3.967-0.879-5.401-1.824-1.385-0.913-3.087-2.579-4.421-4.329-0.42-0.552-0.46-0.592-0.753-0.748-0.281-0.149-0.595-0.135-0.979 0.048-0.427 0.201-0.661 0.481-0.839 1.005-0.289 0.845-0.584 2.247-0.768 3.643-0.131 1.001-0.131 3.52 0 4.496 0.248 1.852 0.669 3.263 1.429 4.783 1.073 2.147 2.591 3.856 4.687 5.277l0.533 0.361-0.413 0.175c-1.621 0.708-3.509 1.12-5.494 1.12-0.014 0-0.028-0-0.042-0h0.002c-0.499 0-0.993 0.025-1.1 0.055-0.303 0.080-0.547 0.283-0.681 0.551l-0.003 0.006c-0.112 0.22-0.136 0.339-0.136 0.693 0 0.368 0.020 0.463 0.144 0.673 0.187 0.319 0.353 0.439 1.189 0.864 2.073 1.053 3.952 1.695 6.107 2.085 1.405 0.255 3.689 0.367 5.073 0.249 1.737-0.148 3.2-0.451 4.66-0.963 4.72-1.656 8.313-4.949 10.36-9.495 1.125-2.501 1.692-5.183 1.745-8.279l0.020-1.107 0.331-0.404c0.981-1.199 1.74-2.623 2.187-4.178l0.021-0.083c0.296-1.037 0.107-1.599-0.637-1.884-0.567-0.217-0.884-0.155-1.635 0.327-0.333 0.212-0.833 0.509-1.112 0.659-0.505 0.272-1.491 0.709-1.597 0.709-0.031 0-0.276-0.167-0.544-0.371-0.795-0.603-1.821-1.063-2.927-1.309-0.387-0.085-1.988-0.156-2.292-0.101zM22.863 5.411c1.027 0.219 1.86 0.692 2.631 1.496 0.32 0.333 0.565 0.453 0.928 0.453 0.241 0 0.819-0.143 1.252-0.308 0.119-0.047-0.067 0.2-0.54 0.713-0.545 0.592-0.613 0.777-0.529 1.455 0.155 1.251-0.004 3.307-0.396 5.127-0.557 2.536-1.634 4.76-3.12 6.648l0.027-0.035c-0.465 0.588-1.736 1.851-2.315 2.3-1.041 0.808-2.456 1.639-3.573 2.1-1.347 0.565-2.91 0.97-4.542 1.139l-0.072 0.006c-0.797 0.077-2.567 0.064-3.413-0.025-0.892-0.095-2.080-0.303-2.48-0.435-0.044-0.015 0.196-0.119 0.533-0.229 0.912-0.3 1.688-0.636 2.427-1.033l-0.080 0.039c0.98-0.499 1.844-1.036 2.064-1.283 0.297-0.333 0.461-1.024 0.323-1.355-0.155-0.371-0.339-0.516-1.177-0.925-3.961-1.94-6.103-4.66-6.828-8.673-0.161-0.895-0.211-1.697-0.179-2.959 0.028-1.085 0.061-1.507 0.172-2.144l0.029-0.171 0.464 0.483c0.629 0.634 1.287 1.235 1.975 1.802l0.045 0.036c1.865 1.5 4.248 2.508 6.856 2.904 0.868 0.131 2.787 0.197 3.115 0.108 0.308-0.077 0.561-0.274 0.71-0.537l0.003-0.006c0.128-0.229 0.133-0.281 0.168-1.597 0.029-1.168 0.051-1.416 0.151-1.76 0.483-1.68 1.831-2.957 3.518-3.329l0.031-0.006c0.432-0.095 1.379-0.096 1.823-0.001z"></path>
</symbol>
<symbol id="insta-mob" viewBox="0 0 22 22">
<path d="M8.084 1.684c-3.322 0.559-5.857 3.12-6.407 6.474-0.111 0.673-0.111 15.009 0 15.683 0.337 2.065 1.408 3.833 3.059 5.055 0.952 0.714 2.103 1.217 3.355 1.417l0.044 0.006c0.756 0.122 14.973 0.122 15.729 0 1.687-0.261 3.156-1.047 4.269-2.182l0.001-0.001c1.137-1.115 1.922-2.584 2.178-4.228l0.005-0.042c0.122-0.756 0.122-14.973 0-15.729-0.261-1.687-1.047-3.156-2.182-4.269l-0.001-0.001c-0.887-0.908-2.001-1.59-3.25-1.955l-0.053-0.013c-1.050-0.304-0.826-0.297-8.897-0.291-5.911 0.006-7.514 0.022-7.85 0.079zM23.156 3.788c1.28 0.121 2.39 0.62 3.318 1.491 0.968 0.906 1.609 2.151 1.737 3.543l0.002 0.022c0.073 0.768 0.073 13.545 0 14.313-0.129 1.415-0.77 2.659-1.735 3.562l-0.003 0.003c-0.872 0.832-2.022 1.379-3.297 1.489l-0.020 0.001c-0.807 0.077-13.567 0.073-14.332-0.004-2.357-0.224-4.272-1.885-4.871-4.089l-0.009-0.039c-0.196-0.726-0.211-1.313-0.211-8.080s0.015-7.354 0.211-8.080c0.604-2.234 2.554-3.91 4.801-4.128 0.676-0.065 13.724-0.070 14.41-0.004zM22.854 7.654c-0.388 0.137-0.614 0.509-0.614 1.012 0 0.7 0.409 1.097 1.12 1.091 0.681-0.006 1.065-0.399 1.065-1.091 0-0.346-0.121-0.679-0.307-0.845-0.265-0.234-0.854-0.313-1.264-0.167zM15.395 9.549c-2.238 0.25-4.11 1.61-5.074 3.508l-0.017 0.037c-0.739 1.469-0.863 3.388-0.319 4.932 0.772 2.189 2.535 3.734 4.815 4.217 0.608 0.129 1.744 0.14 2.381 0.022 2.241-0.414 4.049-1.939 4.856-3.971l0.015-0.044c0.267-0.686 0.422-1.48 0.422-2.31 0-0.854-0.164-1.67-0.463-2.418l0.015 0.044c-0.606-1.482-1.701-2.661-3.082-3.358l-0.037-0.017c-0.839-0.425-1.829-0.674-2.877-0.674-0.225 0-0.446 0.011-0.665 0.034l0.027-0.002zM17.066 11.825c1.536 0.362 2.79 1.655 3.123 3.223 0.468 2.195-0.845 4.364-3.015 4.985-0.269 0.077-0.528 0.099-1.148 0.099-0.694 0.001-0.848-0.015-1.167-0.122-1.9-0.637-3.020-2.172-3.020-4.138 0-1.040 0.33-1.887 1.081-2.764 0.959-1.123 2.631-1.641 4.145-1.283z"></path>
</symbol>
<symbol id="twitt-mob" viewBox="0 0 22 22">
<path d="M21.181 2.83c-0.905 0.118-1.727 0.374-2.479 0.748l0.045-0.020c-1.328 0.661-2.518 1.859-3.208 3.23-0.426 0.843-0.712 2.014-0.712 2.904v0.44h-0.21c-0.231-0.009-0.448-0.028-0.661-0.058l0.034 0.004c-1.707-0.227-3.68-0.906-4.88-1.68-1.224-0.789-2.542-2.126-3.867-3.925-0.568-0.77-0.768-0.922-1.19-0.914-0.533 0.010-0.973 0.347-1.218 0.936-0.485 1.163-0.947 3.179-1.126 4.906-0.077 0.739-0.080 2.456-0.005 3.211 0.41 4.12 2.392 7.4 5.872 9.717 0.293 0.195 0.531 0.371 0.531 0.394 0 0.061-1.070 0.493-1.814 0.733-1.382 0.445-2.562 0.635-4.237 0.683-0.589 0.016-1.146 0.054-1.24 0.082-0.427 0.13-0.653 0.498-0.654 1.066-0.003 0.645 0.179 0.874 1.066 1.342 4.67 2.475 10.075 3.126 14.88 1.792 3.742-1.040 7.115-3.342 9.374-6.4 2.395-3.24 3.691-7.357 3.691-11.73v-0.989l0.354-0.424c1.018-1.241 1.795-2.721 2.237-4.34l0.019-0.083c0.141-0.541 0.139-0.75-0.010-1.045-0.179-0.354-0.53-0.55-1.027-0.576-0.434-0.022-0.466-0.010-1.186 0.454-0.557 0.366-1.2 0.719-1.871 1.020l-0.089 0.036c-0.784 0.341-0.747 0.341-1.123 0.035-1.239-0.989-2.829-1.588-4.558-1.588-0.26 0-0.517 0.014-0.77 0.040l0.032-0.003zM22.597 5.232c0.667 0.102 1.266 0.314 1.808 0.617l-0.027-0.014c0.227 0.133 0.648 0.466 0.963 0.763 0.806 0.757 0.922 0.781 2.002 0.414 0.389-0.131 0.722-0.24 0.738-0.24 0.066 0-0.301 0.474-0.738 0.952-0.25 0.275-0.493 0.578-0.539 0.675-0.091 0.194-0.102 0.586-0.034 1.173 0.054 0.464-0.019 2.176-0.133 3.067-0.821 6.512-4.736 11.411-10.632 13.304-2.581 0.829-5.416 0.986-8.283 0.459-0.63-0.116-1.147-0.24-1.654-0.386l0.119 0.030c-0.045-0.016 0.205-0.11 0.555-0.211 1.57-0.454 3.934-1.598 4.712-2.282 0.259-0.256 0.424-0.607 0.438-0.996l0-0.003c0-0.525-0.179-0.702-1.264-1.24-1.493-0.742-2.578-1.488-3.526-2.429-1.925-1.904-2.878-4.146-3.078-7.234-0.064-0.979 0.062-2.304 0.389-4.094 0.014-0.083 0.045-0.142 0.067-0.134 0.021 0.010 0.267 0.269 0.544 0.576 1.194 1.323 2.456 2.309 3.826 2.992 1.877 0.934 3.677 1.403 5.934 1.546 1.382 0.088 1.886 0.006 2.168-0.352 0.182-0.234 0.213-0.435 0.24-1.678 0.037-1.573 0.155-2.085 0.696-3.014 0.307-0.525 1.166-1.373 1.685-1.664 0.685-0.402 1.508-0.639 2.387-0.639 0.225 0 0.446 0.016 0.662 0.046l-0.025-0.003z"></path>
</symbol>
<symbol id="instagram" viewBox="0 0 32 32"><path d="M8.507 1.391a7.864 7.864 0 0 0-4.863 2.347l-.002.002a7.754 7.754 0 0 0-2.254 4.812l-.002.03c-.065.672-.065 14.165 0 14.837a7.807 7.807 0 0 0 2.353 4.938l.002.002a7.754 7.754 0 0 0 4.812 2.254l.03.002c.672.065 14.165.065 14.837 0a7.77 7.77 0 0 0 4.841-2.256 7.793 7.793 0 0 0 2.352-4.91l.002-.03c.065-.672.065-14.165 0-14.837a7.811 7.811 0 0 0-2.352-4.938l-.002-.002a7.754 7.754 0 0 0-4.812-2.254l-.03-.002c-.619-.06-14.299-.056-14.912.005zm15.19 2.72a5.33 5.33 0 0 1 4.188 4.159l.006.034c.107.529.109.68.109 7.696 0 7.021-.003 7.167-.111 7.697a5.33 5.33 0 0 1-4.159 4.188l-.034.006c-.529.107-.68.109-7.696.109s-7.167-.003-7.696-.109a5.33 5.33 0 0 1-4.188-4.159l-.006-.034c-.108-.531-.111-.676-.111-7.697s.003-7.167.111-7.697a5.341 5.341 0 0 1 4.125-4.183l.035-.006c.485-.103.743-.105 7.695-.109 7.064-.004 7.201-.003 7.732.107zm-.686 3.248c.497-.073.989.025 1.26.252.293.248.393.516.391 1.056-.003.533-.077.763-.324.997-.244.233-.527.324-1.005.323-.919-.004-1.323-.408-1.319-1.32.004-.805.309-1.205.997-1.308zm-8.184 2.029c-2.787.535-4.903 2.719-5.367 5.537-.1.608-.075 1.739.053 2.328a6.557 6.557 0 0 0 1.74 3.301l-.001-.001c1.205 1.261 2.744 1.959 4.508 2.044 3.371.161 6.323-2.233 6.883-5.584.109-.653.083-1.816-.057-2.453-.197-.905-.64-1.899-1.149-2.573a8.69 8.69 0 0 0-1.405-1.412l-.018-.013c-.449-.341-1.511-.868-2.04-1.013-1.024-.281-2.205-.341-3.147-.16zm1.962 2.64c1.052.2 2.011.839 2.62 1.747.431.643.679 1.596.627 2.412-.064.997-.447 1.827-1.183 2.567-.413.416-.556.521-.988.729-.712.344-1.075.429-1.812.427-1.155-.003-1.988-.349-2.801-1.161-.811-.811-1.156-1.641-1.164-2.801-.004-.732.115-1.223.459-1.891.311-.601 1.017-1.307 1.613-1.612.921-.471 1.696-.593 2.629-.416z"/></symbol>
<symbol id="chocolate-bar" viewBox="0 0 32 32"><path d="m13.822 2.413 7.527 7.536.08-.08a.856.856 0 0 1 1.184-.013l.873.873c.305.305.315.77.083 1.094l-.004.007-.143.192 6.16 6.16c.55.55.55 1.43 0 1.98l-9.43 9.43c-.55.55-1.43.55-1.98 0l-4.447-4.447a.853.853 0 0 1-.612.317.842.842 0 0 1-.644-.246l-2.6-2.6a.856.856 0 0 1-.013-1.184l.006-.007.077-.076-7.527-7.527c-.55-.55-.55-1.43 0-1.98l9.43-9.43c.55-.55 1.43-.55 1.98 0v.001zm6.582 8.48-1.756-1.755a.59.59 0 0 0-.85 0l-3.58 3.58a.621.621 0 0 0-.179.43.602.602 0 0 0 .179.43l1.749 1.749.61-.61-1.565-1.565 3.21-3.22 1.569 1.574.613-.613zm-5.076 5.072-1.754-1.754a.59.59 0 0 0-.85 0l-3.59 3.59c-.24.23-.24.61 0 .85l1.752 1.752.616-.616-1.57-1.564 3.22-3.21 1.564 1.563.612-.611zM8.822 8.193l3.58 3.58c.24.24.62.24.85-.01l3.58-3.58a.57.57 0 0 0 .18-.42h.01c0-.15-.06-.31-.18-.43l-3.58-3.58a.602.602 0 0 0-.86 0l-3.58 3.59c-.24.23-.24.61 0 .85zm-5.07 5.07 3.58 3.58c.24.24.62.24.85 0l3.58-3.58a.578.578 0 0 0 .18-.43h.01c0-.16-.06-.31-.18-.43l-3.58-3.58a.59.59 0 0 0-.85 0l-3.59 3.59c-.24.23-.24.61 0 .85zm6.933 8.754 2.362 2.363 9.636-13.04-.655-.655-11.343 11.332z" style="fill:var(--color2, #000)"/><path fill="#fd9222" d="m13.822 2.413 7.527 7.536.08-.08a.856.856 0 0 1 1.184-.013l.873.873c.305.305.315.77.083 1.094l-.004.007-.143.192 6.16 6.16c.55.55.55 1.43 0 1.98l-9.43 9.43c-.55.55-1.43.55-1.98 0l-4.447-4.447a.853.853 0 0 1-.612.317.842.842 0 0 1-.644-.246l-2.6-2.6a.856.856 0 0 1-.013-1.184l.006-.007.077-.076-7.527-7.527c-.55-.55-.55-1.43 0-1.98l9.43-9.43c.55-.55 1.43-.55 1.98 0v.001zm6.582 8.48-1.756-1.755a.59.59 0 0 0-.85 0l-3.58 3.58a.621.621 0 0 0-.179.43.602.602 0 0 0 .179.43l1.749 1.749.61-.61-1.565-1.565 3.21-3.22 1.569 1.574.613-.613zm-5.076 5.072-1.754-1.754a.59.59 0 0 0-.85 0l-3.59 3.59c-.24.23-.24.61 0 .85l1.752 1.752.616-.616-1.57-1.564 3.22-3.21 1.564 1.563.612-.611zM8.822 8.193l3.58 3.58c.24.24.62.24.85-.01l3.58-3.58a.57.57 0 0 0 .18-.42h.01c0-.15-.06-.31-.18-.43l-3.58-3.58a.602.602 0 0 0-.86 0l-3.58 3.59c-.24.23-.24.61 0 .85zm-5.07 5.07 3.58 3.58c.24.24.62.24.85 0l3.58-3.58a.578.578 0 0 0 .18-.43h.01c0-.16-.06-.31-.18-.43l-3.58-3.58a.59.59 0 0 0-.85 0l-3.59 3.59c-.24.23-.24.61 0 .85zm6.933 8.754 2.362 2.363 9.636-13.04-.655-.655-11.343 11.332z" style="fill:var(--color1, #fd9222)"/></symbol>
<symbol id="menu" viewBox="0 0 32 32"><path d="m3.32 6.91.274-.137h24.812l.274.137c.382.191.547.518.547 1.09s-.165.899-.547 1.09l-.274.137H3.594L3.32 9.09c-.382-.191-.547-.518-.547-1.09s.165-.899.547-1.09zm0 8 .274-.137h24.812l.274.137c.382.191.547.518.547 1.09s-.165.899-.547 1.09l-.274.137H3.594l-.274-.137c-.382-.191-.547-.518-.547-1.09s.165-.899.547-1.09zm0 8 .274-.137h24.812l.274.137c.382.191.547.518.547 1.09s-.165.899-.547 1.09l-.274.137H3.594l-.274-.137c-.382-.191-.547-.518-.547-1.09s.165-.899.547-1.09z"/></symbol>
<symbol id="twitter" viewBox="0 0 32 32"><path d="M21.12 2.699c-1.139.208-1.597.345-2.32.691-.881.423-1.711 1.045-2.281 1.713C15.403 6.41 14.8 7.852 14.69 9.478l-.037.545-.247-.029c-2.089-.245-3.967-.879-5.401-1.824-1.385-.913-3.087-2.579-4.421-4.329-.42-.552-.46-.592-.753-.748-.281-.149-.595-.135-.979.048-.427.201-.661.481-.839 1.005-.289.845-.584 2.247-.768 3.643-.131 1.001-.131 3.52 0 4.496.248 1.852.669 3.263 1.429 4.783 1.073 2.147 2.591 3.856 4.687 5.277l.533.361-.413.175c-1.621.708-3.509 1.12-5.494 1.12h-.042.002c-.499 0-.993.025-1.1.055a1.06 1.06 0 0 0-.681.551l-.003.006c-.112.22-.136.339-.136.693 0 .368.02.463.144.673.187.319.353.439 1.189.864 2.073 1.053 3.952 1.695 6.107 2.085 1.405.255 3.689.367 5.073.249 1.737-.148 3.2-.451 4.66-.963 4.72-1.656 8.313-4.949 10.36-9.495 1.125-2.501 1.692-5.183 1.745-8.279l.02-1.107.331-.404a11.734 11.734 0 0 0 2.187-4.178l.021-.083c.296-1.037.107-1.599-.637-1.884-.567-.217-.884-.155-1.635.327-.333.212-.833.509-1.112.659-.505.272-1.491.709-1.597.709-.031 0-.276-.167-.544-.371-.795-.603-1.821-1.063-2.927-1.309-.387-.085-1.988-.156-2.292-.101zm1.743 2.712c1.027.219 1.86.692 2.631 1.496.32.333.565.453.928.453.241 0 .819-.143 1.252-.308.119-.047-.067.2-.54.713-.545.592-.613.777-.529 1.455.155 1.251-.004 3.307-.396 5.127-.557 2.536-1.634 4.76-3.12 6.648l.027-.035c-.465.588-1.736 1.851-2.315 2.3-1.041.808-2.456 1.639-3.573 2.1-1.347.565-2.91.97-4.542 1.139l-.072.006c-.797.077-2.567.064-3.413-.025-.892-.095-2.08-.303-2.48-.435-.044-.015.196-.119.533-.229.912-.3 1.688-.636 2.427-1.033l-.08.039c.98-.499 1.844-1.036 2.064-1.283.297-.333.461-1.024.323-1.355-.155-.371-.339-.516-1.177-.925-3.961-1.94-6.103-4.66-6.828-8.673-.161-.895-.211-1.697-.179-2.959.028-1.085.061-1.507.172-2.144l.029-.171.464.483a26.71 26.71 0 0 0 1.975 1.802l.045.036c1.865 1.5 4.248 2.508 6.856 2.904.868.131 2.787.197 3.115.108.308-.077.561-.274.71-.537l.003-.006c.128-.229.133-.281.168-1.597.029-1.168.051-1.416.151-1.76a4.732 4.732 0 0 1 3.518-3.329l.031-.006c.432-.095 1.379-.096 1.823-.001z"/></symbol>
<symbol id="spoon" viewBox="0 0 32 32"><path fill="#fd9222" d="M15.451 14.106a5.154 5.154 0 0 1-1.177-3.282c0-4.324 5.181-8.642 10.362-8.642a5.183 5.183 0 0 1 5.181 5.182c0 5.182-4.317 10.364-8.646 10.364a5.15 5.15 0 0 1-3.281-1.177L5.132 29.312a1.73 1.73 0 0 1-2.445-2.445l12.764-12.761z" style="fill:var(--color1, #fd9222)"/></symbol>
<symbol id="logo-chocolate" viewBox="0 0 32 32"><path fill="#fcf1e0" d="m14.437 6.089 1.269-2.083.16.101L11.14 1.31c.786.498 1.572.995 7.137 4.301 1.239.771 2.253 1.417 2.253 1.437.005.075-2.499 4.124-2.544 4.113a475.252 475.252 0 0 1-4.803-2.979c-.009-.007.555-.949 1.253-2.095zM22.7 8.6c.041-.065.088-.12.104-.12.044 0 .343.16.343.184 0 .012-.069.209-.153.439-.467 1.267-.444 2.616.06 3.617.304.604 1.121 1.54 1.82 2.085l.208.161-.128.223c-.069.123-.143.224-.161.224-.028 0-4.44-2.737-4.515-2.8-.012-.011 2.037-3.407 2.423-4.013zm-12.187 3.913c.685-1.131 1.264-2.056 1.287-2.057.021-.001 1.119.672 2.439 1.496 2.177 1.361 2.393 1.509 2.344 1.603l-.749 1.327c-.8 1.315-1.609 2.624-1.699 2.682-.033.035-4.647-2.791-4.821-2.952-.025-.024.515-.968 1.2-2.099zm8.327 2.434.001-.001a.263.263 0 0 1 .067-.066l1.087.628c1.442.894 2.875 1.803 3.305 2.122.06.056-.14.405-1.192 2.072-.696 1.103-1.287 2.019-1.313 2.035-.047.029-4.421-2.673-4.421-2.731 0-.032 2.385-3.957 2.467-4.059zM6.653 18.849a96.55 96.55 0 0 1 1.232-1.995c.059-.004 4.808 3 4.808 3.041 0 .076-2.451 4.077-2.497 4.077-.023 0-1.113-.672-2.424-1.493-1.589-.996-2.375-1.517-2.357-1.565.015-.039.572-.968 1.239-2.065zm7.08 4.454c.675-1.111 1.233-2.02 1.24-2.021l1.43.829c1.427.888 2.847 1.786 2.922 1.889.039.036-2.321 3.857-2.499 4.045-.056.06-.432-.157-2.193-1.261-1.169-.733-2.127-1.363-2.127-1.399 0-.035.552-.972 1.227-2.083z" style="fill:var(--color3, #fcf1e0)"/></symbol>
<symbol id="x" viewBox="0 0 32 32"><path d="M7.494 6.621a2.519 2.519 0 0 0-.472.359l.001-.001c-.527.505-.657 1.068-.369 1.567.09.154 1.537 1.657 3.715 3.857l3.568 3.604-3.6 3.61c-2.806 2.813-3.628 3.665-3.721 3.865-.243.516-.115 1.039.374 1.529.49.489 1.012.617 1.529.374.199-.095 1.053-.916 3.869-3.725l3.613-3.604 3.613 3.604c2.816 2.809 3.67 3.631 3.869 3.725.516.243 1.039.115 1.529-.374.489-.49.617-1.012.374-1.529-.093-.199-.915-1.052-3.721-3.865l-3.601-3.61 3.569-3.607c2.135-2.157 3.626-3.706 3.715-3.856.294-.506.148-1.088-.403-1.594-.489-.451-.979-.563-1.439-.329-.143.073-1.519 1.398-3.849 3.706-1.994 1.977-3.645 3.587-3.67 3.58a351.043 351.043 0 0 1-3.665-3.601l.007.007C10.031 8.038 8.633 6.691 8.492 6.62a1.168 1.168 0 0 0-1.005.004l.007-.003z"/></symbol>
<symbol id="mastercard" viewBox="0 0 51 32"><path fill="#ED0006" d="M25.6 26.935a14.53 14.53 0 0 1-9.496 3.518c-8.086 0-14.641-6.593-14.641-14.726S8.018 1.001 16.104 1.001c3.624 0 6.94 1.324 9.496 3.518a14.532 14.532 0 0 1 9.497-3.518c8.086 0 14.64 6.593 14.64 14.726s-6.555 14.726-14.64 14.726c-3.624 0-6.94-1.324-9.497-3.518z"/><path fill="#F9A000" d="M25.6 26.935c3.148-2.701 5.144-6.72 5.144-11.209S28.748 7.219 25.6 4.518A14.53 14.53 0 0 1 35.097 1c8.086 0 14.64 6.593 14.64 14.726s-6.555 14.726-14.64 14.726c-3.624 0-6.94-1.324-9.497-3.518z" /><path fill="#FF5E00" d="M25.6 26.935c3.148-2.701 5.144-6.72 5.144-11.208S28.748 7.22 25.6 4.519c-3.148 2.701-5.144 6.72-5.144 11.208s1.996 8.507 5.144 11.208z" style="fill:var(--color3, #FF5E00)"/></symbol><symbol id="flag" viewBox="0 0 32 32"><path fill="gold" d="M31.832 5.058H.243v23.508h31.589V5.058z" /><path fill="#0057B7" d="M.243 5.058h31.589v11.754H.243V5.058z" /></symbol>
</defs></svg>