<svg xmlns="http://www.w3.org/2000/svg" width="22" height="22" fill="none"><path d="M5.558 1.158c-2.284.384-4.027 2.145-4.405 4.451-.076.463-.076 10.319 0 10.782.232 1.42.968 2.635 2.103 3.475a5.277 5.277 0 0 0 2.337.978c.52.084 10.294.084 10.814 0a5.196 5.196 0 0 0 2.936-1.501 5.196 5.196 0 0 0 1.501-2.936c.084-.52.084-10.294 0-10.814a5.196 5.196 0 0 0-1.501-2.936 5.146 5.146 0 0 0-2.271-1.353c-.722-.209-.568-.204-6.117-.2-4.064.004-5.166.015-5.397.054M15.92 2.604c.88.083 1.643.426 2.281 1.025a3.816 3.816 0 0 1 1.195 2.451c.05.528.05 9.312 0 9.84a3.816 3.816 0 0 1-1.195 2.451 3.765 3.765 0 0 1-2.281 1.025c-.555.053-9.327.05-9.853-.003a3.835 3.835 0 0 1-3.355-2.838c-.135-.499-.145-.903-.145-5.555 0-4.652.01-5.056.145-5.555.415-1.536 1.756-2.688 3.301-2.838.465-.045 9.435-.048 9.907-.003m-.208 2.658c-.267.094-.422.35-.422.696 0 .481.281.754.77.75.468-.004.732-.274.732-.75 0-.238-.083-.467-.211-.581-.182-.161-.587-.215-.869-.115m-5.128 1.303a4.449 4.449 0 0 0-3.5 2.437c-.508 1.01-.593 2.329-.219 3.391.531 1.505 1.743 2.567 3.31 2.899.418.089 1.199.096 1.637.015a4.436 4.436 0 0 0 3.349-2.76 4.486 4.486 0 0 0-.017-3.22A4.431 4.431 0 0 0 13 7.007a4.45 4.45 0 0 0-2.416-.442m1.149 1.565c1.056.249 1.918 1.138 2.147 2.216.322 1.509-.581 3-2.073 3.427-.185.053-.363.068-.789.068-.477.001-.583-.01-.802-.084-1.306-.438-2.076-1.493-2.076-2.845 0-.715.227-1.297.743-1.9.659-.772 1.809-1.128 2.85-.882" fill-rule="evenodd" fill="#000"/></svg>