<svg xmlns="http://www.w3.org/2000/svg" width="20" height="20" fill="none"><path d="M13.238 1.769a4.86 4.86 0 0 0-1.521.455c-.83.413-1.574 1.162-2.005 2.019-.266.527-.445 1.259-.445 1.815v.275h-.131a3.96 3.96 0 0 1-.392-.034c-1.067-.142-2.3-.566-3.05-1.05-.765-.493-1.589-1.329-2.417-2.453-.355-.481-.48-.576-.744-.571-.333.006-.608.217-.761.585-.303.727-.592 1.987-.704 3.066-.048.462-.05 1.535-.003 2.007.256 2.575 1.495 4.625 3.67 6.073.183.122.332.232.332.246 0 .038-.669.308-1.134.458-.864.278-1.601.397-2.648.427-.368.01-.716.034-.775.051-.267.081-.408.311-.409.666-.002.403.112.546.666.839 2.919 1.547 6.297 1.954 9.3 1.12 2.339-.65 4.447-2.089 5.859-4 1.497-2.025 2.307-4.598 2.307-7.331v-.618l.221-.265a7.372 7.372 0 0 0 1.41-2.764c.088-.338.087-.469-.006-.653-.112-.221-.331-.344-.642-.36-.271-.014-.291-.006-.741.284a8.78 8.78 0 0 1-1.225.66c-.49.213-.467.213-.702.022a4.585 4.585 0 0 0-3.31-.969m.885 1.501a3.33 3.33 0 0 1 1.113.377c.142.083.405.291.602.477.504.473.576.488 1.251.259.243-.082.451-.15.461-.15.041 0-.188.296-.461.595-.156.172-.308.361-.337.422-.057.121-.064.366-.021.733.034.29-.012 1.36-.083 1.917-.513 4.07-2.96 7.132-6.645 8.315-1.613.518-3.385.616-5.177.287a10.55 10.55 0 0 1-.959-.223c-.028-.01.128-.069.347-.132.981-.284 2.459-.999 2.945-1.426a.922.922 0 0 0 .274-.624c0-.328-.112-.439-.79-.775-.933-.464-1.611-.93-2.204-1.518-1.203-1.19-1.799-2.591-1.924-4.521-.04-.612.039-1.44.243-2.559.009-.052.028-.089.042-.084.013.006.167.168.34.36.746.827 1.535 1.443 2.391 1.87 1.173.584 2.298.877 3.709.966.864.055 1.179.004 1.355-.22.114-.146.133-.272.15-1.049.023-.983.097-1.303.435-1.884.192-.328.729-.858 1.053-1.04a2.984 2.984 0 0 1 1.89-.373" fill-rule="evenodd" fill="#000"/></svg>